<svg width="1569" height="1403" viewBox="0 0 1569 1403" fill="none" xmlns="http://www.w3.org/2000/svg">
<g opacity="0.33" filter="url(#filter0_f_108_1002)">
<path fill-rule="evenodd" clip-rule="evenodd" d="M1029.55 886.95C992.857 953.422 902.009 887.137 837.018 919.365C772.512 951.353 733.12 1040.15 667.822 1066.33C593.772 1096.01 517.624 1096.1 457.587 1071.44C391.012 1044.11 319.569 1001.51 314.173 921.106C308.73 839.978 401.577 755.649 430.557 668.614C458.991 583.222 403.069 463.824 481.827 417.605C582.648 358.439 647.453 505.197 751.552 480.239C817.411 464.449 842.662 333.12 908.647 315.274C968.079 299.199 979.837 386.367 1028.34 405.377C1098.62 432.924 1274.41 360.487 1254.01 450.636C1227.94 565.808 1021.78 577.05 964.13 689.112C923.583 767.931 1072.62 808.944 1029.55 886.95Z" fill="#1578E0"/>
</g>
<defs>
<filter id="filter0_f_108_1002" x="0.943726" y="0.306885" width="1567.7" height="1402" filterUnits="userSpaceOnUse" color-interpolation-filters="sRGB">
<feFlood flood-opacity="0" result="BackgroundImageFix"/>
<feBlend mode="normal" in="SourceGraphic" in2="BackgroundImageFix" result="shape"/>
<feGaussianBlur stdDeviation="156.5" result="effect1_foregroundBlur_108_1002"/>
</filter>
</defs>
</svg>
