<svg width="1556" height="1858" viewBox="0 0 1556 1858" fill="none" xmlns="http://www.w3.org/2000/svg">
<g opacity="0.44" filter="url(#filter0_f_150_1029)">
<path fill-rule="evenodd" clip-rule="evenodd" d="M778.058 1542.24C713.313 1568.39 705.354 1378.6 647.104 1330.65C589.288 1283.05 508.274 1330.37 453.845 1275.34C392.122 1212.94 348.729 1115.22 330.832 1010.91C310.986 895.246 298.436 756.503 348.424 660.911C398.86 564.463 507.341 590.751 581.265 532.01C653.793 474.379 700.756 270.887 776.073 321.097C872.488 385.373 812.526 630.446 888.234 736.653C936.131 803.845 1114.6 650.959 1163.93 716.046C1208.36 774.669 974.969 924.201 990.026 1007.47C1011.84 1128.13 1302.68 1240.82 1231.59 1314.01C1144.12 1404.07 978.127 1190.54 871.375 1240.05C796.292 1274.87 854.038 1511.54 778.058 1542.24Z" fill="#1578E0"/>
</g>
<defs>
<filter id="filter0_f_150_1029" x="0.405762" y="0.203125" width="1555.35" height="1857.5" filterUnits="userSpaceOnUse" color-interpolation-filters="sRGB">
<feFlood flood-opacity="0" result="BackgroundImageFix"/>
<feBlend mode="normal" in="SourceGraphic" in2="BackgroundImageFix" result="shape"/>
<feGaussianBlur stdDeviation="156.5" result="effect1_foregroundBlur_150_1029"/>
</filter>
</defs>
</svg>
