<svg width="1568" height="1403" viewBox="0 0 1568 1403" fill="none" xmlns="http://www.w3.org/2000/svg">
<g opacity="0.33" filter="url(#filter0_f_108_1002)">
<path fill-rule="evenodd" clip-rule="evenodd" d="M1028.66 887.136C991.961 953.608 901.113 887.323 836.122 919.551C771.616 951.538 732.224 1040.34 666.926 1066.51C592.876 1096.19 516.728 1096.28 456.691 1071.63C390.116 1044.29 318.673 1001.7 313.277 921.292C307.834 840.164 400.681 755.835 429.661 668.799C458.095 583.407 402.173 464.01 480.931 417.791C581.752 358.624 646.557 505.382 750.656 480.424C816.515 464.635 841.766 333.306 907.751 315.46C967.183 299.385 978.941 386.553 1027.44 405.563C1097.72 433.109 1273.51 360.673 1253.11 450.822C1227.05 565.993 1020.88 577.236 963.234 689.298C922.687 768.116 1071.72 809.13 1028.66 887.136Z" fill="#1578E0"/>
</g>
<defs>
<filter id="filter0_f_108_1002" x="0.0476074" y="0.492676" width="1567.7" height="1402" filterUnits="userSpaceOnUse" color-interpolation-filters="sRGB">
<feFlood flood-opacity="0" result="BackgroundImageFix"/>
<feBlend mode="normal" in="SourceGraphic" in2="BackgroundImageFix" result="shape"/>
<feGaussianBlur stdDeviation="156.5" result="effect1_foregroundBlur_108_1002"/>
</filter>
</defs>
</svg>
