<svg width="360" height="559" viewBox="0 0 360 559" fill="none" xmlns="http://www.w3.org/2000/svg">
<g opacity="0.44" filter="url(#filter0_f_430_8381)">
<path fill-rule="evenodd" clip-rule="evenodd" d="M546.315 444.572C539.919 487.638 477.911 470.281 449.482 500.638C421.265 530.769 417.888 586.369 388.083 613.535C354.283 644.343 313.438 659.681 276.291 658.496C235.098 657.181 93.8474 627.56 74.8698 585.461C55.722 542.984 198.622 520.585 196.765 468.023C194.943 416.455 91.7406 294.694 124.759 254.059C167.027 202.041 272.691 403.475 323.56 369.17C355.742 347.467 335.254 184.663 367.093 161.83C395.77 141.264 422.869 218.852 452.698 219.323C495.922 220.005 572.409 112.672 579.493 165.183C588.543 232.269 480.159 279.701 471.638 351.459C465.645 401.929 553.822 394.032 546.315 444.572Z" fill="#1578E0"/>
</g>
<defs>
<filter id="filter0_f_430_8381" x="-76.8965" y="0.711243" width="806.925" height="807.848" filterUnits="userSpaceOnUse" color-interpolation-filters="sRGB">
<feFlood flood-opacity="0" result="BackgroundImageFix"/>
<feBlend mode="normal" in="SourceGraphic" in2="BackgroundImageFix" result="shape"/>
<feGaussianBlur stdDeviation="75" result="effect1_foregroundBlur_430_8381"/>
</filter>
</defs>
</svg>
