<svg width="38" height="38" viewBox="0 0 38 38" fill="none" xmlns="http://www.w3.org/2000/svg">
<rect width="38" height="38" rx="19" fill="white"/>
<path d="M15.7991 26.2C15.6939 26.2004 15.5897 26.1799 15.4925 26.1398C15.3953 26.0997 15.307 26.0408 15.2327 25.9664C15.0837 25.8155 15.0003 25.612 15.0003 25.4C15.0003 25.188 15.0837 24.9845 15.2327 24.8336L21.0791 19L15.2327 13.1664C15.0824 13.0162 14.998 12.8125 14.998 12.6C14.998 12.3876 15.0824 12.1838 15.2327 12.0336C15.3829 11.8834 15.5866 11.799 15.7991 11.799C16.0115 11.799 16.2152 11.8834 16.3655 12.0336L22.7655 18.4336C22.9144 18.5845 22.9979 18.788 22.9979 19C22.9979 19.212 22.9144 19.4155 22.7655 19.5664L16.3655 25.9664C16.2911 26.0408 16.2028 26.0997 16.1056 26.1398C16.0084 26.1799 15.9042 26.2004 15.7991 26.2V26.2Z" fill="#1578E0"/>
</svg>
