<svg width="38" height="38" viewBox="0 0 38 38" fill="none" xmlns="http://www.w3.org/2000/svg">
<path d="M22.2008 26.2C22.0956 26.2004 21.9914 26.1799 21.8942 26.1398C21.797 26.0997 21.7087 26.0408 21.6344 25.9664L15.2344 19.5664C15.0854 19.4155 15.002 19.212 15.002 19C15.002 18.788 15.0854 18.5845 15.2344 18.4336L21.6344 12.0336C21.7846 11.8834 21.9883 11.799 22.2008 11.799C22.4132 11.799 22.6169 11.8834 22.7672 12.0336C22.9174 12.1838 23.0018 12.3876 23.0018 12.6C23.0018 12.8125 22.9174 13.0162 22.7672 13.1664L16.9208 19L22.7672 24.8336C22.9161 24.9845 22.9996 25.188 22.9996 25.4C22.9996 25.612 22.9161 25.8155 22.7672 25.9664C22.6928 26.0408 22.6045 26.0997 22.5073 26.1398C22.4101 26.1799 22.3059 26.2004 22.2008 26.2V26.2Z" fill="#1578E0"/>
</svg>
