<svg display="none" xmlns="http://www.w3.org/2000/svg">

	<symbol id="login-svg" viewBox="0 0 34 34">
		<g>
			<path fill-rule="evenodd" clip-rule="evenodd"
				d="M17.8585 11.8896C17.3843 11.4154 16.6155 11.4154 16.1413 11.8896C15.6671 12.3638 15.6671 13.1326 16.1413 13.6068L18.3202 15.7857H7.07915C6.40852 15.7857 5.86487 16.3294 5.86487 17C5.86487 17.6706 6.40852 18.2143 7.07915 18.2143H18.3201L16.1413 20.3931C15.6671 20.8673 15.6671 21.6362 16.1413 22.1104C16.6155 22.5846 17.3843 22.5846 17.8585 22.1104L22.1045 17.8644C22.3277 17.6442 22.466 17.3383 22.466 17C22.466 16.6624 22.3282 16.357 22.1058 16.1369L17.8585 11.8896Z"
				fill="white" />
			<path fill-rule="evenodd" clip-rule="evenodd"
				d="M7.12199 7.12209C11.1173 3.12681 17.1258 1.93162 22.3459 4.09384C27.566 6.25607 30.9696 11.3499 30.9696 17.0001C30.9696 22.6503 27.566 27.7441 22.3459 29.9063C17.1258 32.0685 11.1173 30.8733 7.12199 26.8781L7.12059 26.8766C6.0516 25.8041 5.16651 24.5629 4.50085 23.2028C4.20604 22.6005 4.45536 21.8732 5.05772 21.5784C5.66007 21.2836 6.38737 21.5329 6.68218 22.1352C7.23061 23.2558 7.95981 24.2784 8.84052 25.1621C12.1412 28.4618 17.1045 29.4487 21.4166 27.6626C25.7292 25.8763 28.541 21.668 28.541 17.0001C28.541 12.3322 25.7292 8.12388 21.4166 6.33755C17.1043 4.55135 12.1407 5.53849 8.83994 8.83866C7.9595 9.72213 7.23049 10.7445 6.68216 11.8648C6.38734 12.4671 5.66004 12.7164 5.05769 12.4216C4.45534 12.1268 4.20604 11.3995 4.50086 10.7972C5.16654 9.4371 6.05163 8.19595 7.1206 7.12349L7.12199 7.12209Z"
				fill="white" />
		</g>
	</symbol>
	<symbol id="open-svg" viewBox="0 0 41 41">
		<g>
			<path
				d="M7.57993 27.6401C7.35648 27.6408 7.13509 27.5974 6.92851 27.5122C6.72194 27.427 6.53427 27.3017 6.37633 27.1437L0.936332 21.7037C0.619895 21.383 0.442474 20.9506 0.442474 20.5001C0.442474 20.0495 0.619895 19.6171 0.936332 19.2965L6.37633 13.8565C6.69555 13.5372 7.12849 13.3579 7.57993 13.3579C7.80346 13.3579 8.0248 13.4019 8.23132 13.4875C8.43783 13.573 8.62547 13.6984 8.78353 13.8565C8.94159 14.0145 9.06697 14.2022 9.15251 14.4087C9.23805 14.6152 9.28208 14.8365 9.28208 15.0601C9.28208 15.2836 9.23805 15.5049 9.15251 15.7114C9.06697 15.918 8.94159 16.1056 8.78353 16.2637L4.51993 20.5001L8.75633 24.7365C9.07277 25.0571 9.25019 25.4895 9.25019 25.9401C9.25019 26.3906 9.07277 26.823 8.75633 27.1437C8.444 27.4563 8.02182 27.6345 7.57993 27.6401V27.6401Z"
				fill="white" />
			<path
				d="M25.9399 9.27994C25.7165 9.28071 25.4951 9.23724 25.2885 9.15205C25.0819 9.06685 24.8943 8.94161 24.7363 8.78354L20.4999 4.51994L16.2635 8.75634C15.9443 9.07555 15.5114 9.25489 15.0599 9.25489C14.6085 9.25489 14.1756 9.07555 13.8563 8.75634C13.5371 8.43712 13.3578 8.00418 13.3578 7.55274C13.3578 7.1013 13.5371 6.66835 13.8563 6.34914L19.2963 0.909141C19.617 0.592703 20.0494 0.415283 20.4999 0.415283C20.9505 0.415283 21.3829 0.592703 21.7035 0.909141L27.1435 6.34914C27.46 6.66982 27.6374 7.10222 27.6374 7.55274C27.6374 8.00326 27.46 8.43566 27.1435 8.75634C26.9879 8.91933 26.8012 9.0496 26.5945 9.13951C26.3879 9.22942 26.1653 9.27717 25.9399 9.27994V9.27994Z"
				fill="white" />
			<path
				d="M33.4199 27.6401C33.1965 27.6408 32.9751 27.5974 32.7685 27.5122C32.5619 27.427 32.3743 27.3017 32.2163 27.1437C31.8999 26.823 31.7225 26.3906 31.7225 25.9401C31.7225 25.4895 31.8999 25.0571 32.2163 24.7365L36.4799 20.5001L32.2435 16.2637C31.9243 15.9444 31.745 15.5115 31.745 15.0601C31.745 14.6086 31.9243 14.1757 32.2435 13.8565C32.5627 13.5372 32.9957 13.3579 33.4471 13.3579C33.8986 13.3579 34.3315 13.5372 34.6507 13.8565L40.0907 19.2965C40.4072 19.6171 40.5846 20.0495 40.5846 20.5001C40.5846 20.9506 40.4072 21.383 40.0907 21.7037L34.6507 27.1437C34.4896 27.305 34.2975 27.4322 34.086 27.5175C33.8745 27.6028 33.6479 27.6445 33.4199 27.6401Z"
				fill="white" />
			<path
				d="M20.4999 40.5599C20.2765 40.5607 20.0551 40.5172 19.8485 40.432C19.6419 40.3468 19.4543 40.2216 19.2963 40.0635L13.8563 34.6235C13.5371 34.3043 13.3578 33.8714 13.3578 33.4199C13.3578 32.9685 13.5371 32.5355 13.8563 32.2163C14.1756 31.8971 14.6085 31.7178 15.0599 31.7178C15.5114 31.7178 15.9443 31.8971 16.2635 32.2163L20.4999 36.4799L24.7363 32.2435C25.0555 31.9243 25.4885 31.745 25.9399 31.745C26.3914 31.745 26.8243 31.9243 27.1435 32.2435C27.4627 32.5627 27.6421 32.9957 27.6421 33.4471C27.6421 33.8986 27.4627 34.3315 27.1435 34.6507L21.7035 40.0907C21.3801 40.4 20.9474 40.5687 20.4999 40.5599V40.5599Z"
				fill="white" />
			<path
				d="M20.4999 16.0799C20.0491 16.0799 19.6167 15.9008 19.2978 15.582C18.979 15.2632 18.7999 14.8308 18.7999 14.3799V2.13994C18.7999 1.68907 18.979 1.25667 19.2978 0.93786C19.6167 0.619048 20.0491 0.439941 20.4999 0.439941C20.9508 0.439941 21.3832 0.619048 21.702 0.93786C22.0208 1.25667 22.1999 1.68907 22.1999 2.13994V14.3799C22.1999 14.8308 22.0208 15.2632 21.702 15.582C21.3832 15.9008 20.9508 16.0799 20.4999 16.0799V16.0799Z"
				fill="white" />
			<path
				d="M14.3799 22.2001H2.13994C1.68907 22.2001 1.25667 22.0209 0.93786 21.7021C0.619048 21.3833 0.439941 20.9509 0.439941 20.5C0.439941 20.0492 0.619048 19.6168 0.93786 19.298C1.25667 18.9792 1.68907 18.8 2.13994 18.8H14.3799C14.8308 18.8 15.2632 18.9792 15.582 19.298C15.9008 19.6168 16.0799 20.0492 16.0799 20.5C16.0799 20.9509 15.9008 21.3833 15.582 21.7021C15.2632 22.0209 14.8308 22.2001 14.3799 22.2001V22.2001Z"
				fill="white" />
			<path
				d="M38.86 22.2001H26.62C26.1691 22.2001 25.7367 22.0209 25.4179 21.7021C25.0991 21.3833 24.92 20.9509 24.92 20.5C24.92 20.0492 25.0991 19.6168 25.4179 19.298C25.7367 18.9792 26.1691 18.8 26.62 18.8H38.86C39.3108 18.8 39.7432 18.9792 40.062 19.298C40.3808 19.6168 40.56 20.0492 40.56 20.5C40.56 20.9509 40.3808 21.3833 40.062 21.7021C39.7432 22.0209 39.3108 22.2001 38.86 22.2001Z"
				fill="white" />
			<path
				d="M20.4999 40.5599C20.0491 40.5599 19.6167 40.3808 19.2978 40.062C18.979 39.7432 18.7999 39.3108 18.7999 38.8599V26.6199C18.7999 26.1691 18.979 25.7367 19.2978 25.4178C19.6167 25.099 20.0491 24.9199 20.4999 24.9199C20.9508 24.9199 21.3832 25.099 21.702 25.4178C22.0208 25.7367 22.1999 26.1691 22.1999 26.6199V38.8599C22.1999 39.3108 22.0208 39.7432 21.702 40.062C21.3832 40.3808 20.9508 40.5599 20.4999 40.5599Z"
				fill="white" />
		</g>
	</symbol>
	<symbol id="screen-svg" viewBox="0 0 41 35">
		<g>
			<path
				d="M33.4199 34.1601H25.9399C25.4891 34.1601 25.0567 33.981 24.7379 33.6622C24.419 33.3434 24.2399 32.911 24.2399 32.4601C24.2399 32.0092 24.419 31.5768 24.7379 31.258C25.0567 30.9392 25.4891 30.7601 25.9399 30.7601H33.4199C34.4113 30.7583 35.3615 30.3637 36.0625 29.6627C36.7635 28.9617 37.1581 28.0114 37.1599 27.0201V7.98009C37.1581 6.98873 36.7635 6.03849 36.0625 5.33749C35.3615 4.6365 34.4113 4.24189 33.4199 4.24009H7.57994C6.58858 4.24189 5.63834 4.6365 4.93735 5.33749C4.23635 6.03849 3.84174 6.98873 3.83994 7.98009V8.66009C3.83994 9.11096 3.66084 9.54336 3.34202 9.86217C3.02321 10.181 2.59081 10.3601 2.13994 10.3601C1.68907 10.3601 1.25667 10.181 0.93786 9.86217C0.619048 9.54336 0.439941 9.11096 0.439941 8.66009L0.439941 7.98009C0.441742 6.08699 1.19457 4.27195 2.53319 2.93333C3.87181 1.59471 5.68685 0.841888 7.57994 0.840088L33.4199 0.840088C35.313 0.841888 37.1281 1.59471 38.4667 2.93333C39.8053 4.27195 40.5581 6.08699 40.5599 7.98009V27.0201C40.5581 28.9132 39.8053 30.7282 38.4667 32.0668C37.1281 33.4055 35.313 34.1583 33.4199 34.1601V34.1601Z"
				fill="white" />
			<path
				d="M20.4999 34.1601C20.0491 34.1601 19.6167 33.981 19.2979 33.6622C18.979 33.3434 18.7999 32.911 18.7999 32.4601C18.7945 28.0433 17.0376 23.8089 13.9144 20.6857C10.7912 17.5625 6.55679 15.8055 2.13994 15.8001C1.68907 15.8001 1.25667 15.621 0.93786 15.3022C0.619048 14.9834 0.439941 14.551 0.439941 14.1001C0.439941 13.6493 0.619048 13.2169 0.93786 12.8981C1.25667 12.5793 1.68907 12.4001 2.13994 12.4001C7.45853 12.4055 12.5577 14.5207 16.3185 18.2815C20.0793 22.0424 22.1945 27.1416 22.1999 32.4601C22.1999 32.911 22.0208 33.3434 21.702 33.6622C21.3832 33.981 20.9508 34.1601 20.4999 34.1601Z"
				fill="white" />
			<path
				d="M15.2571 34.16C14.8063 34.16 14.3739 33.9809 14.0551 33.6621C13.7362 33.3433 13.5571 32.9109 13.5571 32.46C13.5535 29.4331 12.3495 26.5312 10.2091 24.3908C8.06879 22.2505 5.16687 21.0464 2.13994 21.0428C1.68907 21.0428 1.25667 20.8637 0.93786 20.5449C0.619048 20.2261 0.439941 19.7937 0.439941 19.3428C0.439941 18.892 0.619048 18.4596 0.93786 18.1407C1.25667 17.8219 1.68907 17.6428 2.13994 17.6428C6.06805 17.6482 9.83373 19.211 12.6113 21.9886C15.3889 24.7662 16.9517 28.5319 16.9571 32.46C16.9571 32.6833 16.9132 32.9043 16.8277 33.1106C16.7423 33.3168 16.6171 33.5042 16.4592 33.6621C16.3014 33.82 16.114 33.9452 15.9077 34.0306C15.7014 34.1161 15.4804 34.16 15.2571 34.16Z"
				fill="white" />
			<path
				d="M10.0075 34.1602C9.55667 34.1602 9.12427 33.9811 8.80546 33.6623C8.48665 33.3434 8.30754 32.911 8.30754 32.4602C8.30574 30.825 7.65536 29.2573 6.4991 28.101C5.34285 26.9448 3.77514 26.2944 2.13994 26.2926C1.68907 26.2926 1.25667 26.1135 0.93786 25.7947C0.619048 25.4758 0.439941 25.0434 0.439941 24.5926C0.439941 24.1417 0.619048 23.7093 0.93786 23.3905C1.25667 23.0717 1.68907 22.8926 2.13994 22.8926C4.67687 22.8944 7.10938 23.903 8.90327 25.6969C10.6971 27.4907 11.7057 29.9232 11.7075 32.4602C11.7075 32.911 11.5284 33.3434 11.2096 33.6623C10.8908 33.9811 10.4584 34.1602 10.0075 34.1602Z"
				fill="white" />
			<path
				d="M4.76474 34.1601H2.13994C1.68907 34.1601 1.25667 33.9809 0.93786 33.6621C0.619048 33.3433 0.439941 32.9109 0.439941 32.4601L0.439941 29.8353C0.439941 29.3844 0.619048 28.952 0.93786 28.6332C1.25667 28.3144 1.68907 28.1353 2.13994 28.1353C3.28695 28.1353 4.38698 28.5909 5.19804 29.402C6.00909 30.213 6.46474 31.313 6.46474 32.4601C6.46474 32.9109 6.28563 33.3433 5.96682 33.6621C5.64801 33.9809 5.21561 34.1601 4.76474 34.1601V34.1601Z"
				fill="white" />
		</g>
	</symbol>
	<symbol id="cam-svg" viewBox="0 0 41 27">
		<g>
			<path
				d="M23.8999 26.76H7.57994C5.68685 26.7582 3.87181 26.0054 2.53319 24.6667C1.19457 23.3281 0.441742 21.5131 0.439941 19.62L0.439941 7.37999C0.441742 5.4869 1.19457 3.67186 2.53319 2.33324C3.87181 0.994617 5.68685 0.241791 7.57994 0.23999L23.8999 0.23999C25.793 0.241791 27.6081 0.994617 28.9467 2.33324C30.2853 3.67186 31.0381 5.4869 31.0399 7.37999V19.62C31.0381 21.5131 30.2853 23.3281 28.9467 24.6667C27.6081 26.0054 25.793 26.7582 23.8999 26.76V26.76ZM7.57994 3.63999C6.58858 3.64179 5.63834 4.0364 4.93735 4.7374C4.23635 5.43839 3.84174 6.38863 3.83994 7.37999V19.62C3.84174 20.6113 4.23635 21.5616 4.93735 22.2626C5.63834 22.9636 6.58858 23.3582 7.57994 23.36H23.8999C24.8913 23.3582 25.8415 22.9636 26.5425 22.2626C27.2435 21.5616 27.6381 20.6113 27.6399 19.62V7.37999C27.6381 6.38863 27.2435 5.43839 26.5425 4.7374C25.8415 4.0364 24.8913 3.64179 23.8999 3.63999H7.57994Z"
				 />
			<path
				d="M38.8599 22.3332C38.6248 22.3289 38.3932 22.2756 38.1799 22.1768L28.6599 17.8656C28.4463 17.7806 28.2521 17.6532 28.0892 17.491C27.9262 17.3289 27.7979 17.1353 27.7119 16.9221C27.6258 16.709 27.584 16.4805 27.5887 16.2507C27.5935 16.0208 27.6449 15.7944 27.7397 15.5849C27.8345 15.3755 27.9708 15.1875 28.1404 15.0322C28.31 14.877 28.5092 14.7577 28.7262 14.6817C28.9432 14.6057 29.1733 14.5745 29.4027 14.5899C29.632 14.6054 29.8559 14.6672 30.0607 14.7716L37.1599 17.9948V8.99844L30.0403 12.2012C29.6264 12.387 29.1557 12.4007 28.7316 12.2394C28.3076 12.0781 27.965 11.7549 27.7793 11.341C27.5935 10.9271 27.5798 10.4564 27.7411 10.0324C27.9024 9.60836 28.2256 9.2658 28.6395 9.08004L38.1595 4.79604C38.4196 4.67842 38.7051 4.62819 38.9897 4.64998C39.2743 4.67176 39.5488 4.76486 39.788 4.92068C40.0271 5.0765 40.2232 5.29004 40.3581 5.54159C40.493 5.79314 40.5624 6.07461 40.5599 6.36004V20.64C40.56 20.9246 40.4885 21.2046 40.3518 21.4542C40.2151 21.7038 40.0177 21.9149 39.7779 22.068C39.5031 22.2413 39.1848 22.3333 38.8599 22.3332V22.3332Z"
				/>
		</g>
	</symbol>
	<symbol id="cloud-svg" viewBox="0 0 41 40">
		<g>
			<path
				d="M31.3799 27.9457H27.2999C26.8491 27.9457 26.4167 27.7666 26.0978 27.4478C25.779 27.129 25.5999 26.6966 25.5999 26.2457C25.5999 25.7948 25.779 25.3624 26.0978 25.0436C26.4167 24.7248 26.8491 24.5457 27.2999 24.5457H31.3799C32.9129 24.5457 34.383 23.9367 35.467 22.8528C36.551 21.7688 37.1599 20.2986 37.1599 18.7657C37.1599 17.2327 36.551 15.7626 35.467 14.6786C34.383 13.5946 32.9129 12.9857 31.3799 12.9857H30.1763C29.7466 12.9867 29.3325 12.8243 29.0181 12.5313C28.7037 12.2384 28.5125 11.8368 28.4831 11.4081C28.3341 9.26079 27.3759 7.25 25.8021 5.78162C24.2283 4.31324 22.156 3.49663 20.0035 3.49663C17.8511 3.49663 15.7788 4.31324 14.2049 5.78162C12.6311 7.25 11.673 9.26079 11.5239 11.4081C11.4946 11.8368 11.3033 12.2384 10.9889 12.5313C10.6745 12.8243 10.2605 12.9867 9.83072 12.9857H9.61992C8.08697 12.9857 6.61681 13.5946 5.53285 14.6786C4.44889 15.7626 3.83992 17.2327 3.83992 18.7657C3.83992 20.2986 4.44889 21.7688 5.53285 22.8528C6.61681 23.9367 8.08697 24.5457 9.61992 24.5457H13.6999C14.1508 24.5457 14.5832 24.7248 14.902 25.0436C15.2208 25.3624 15.3999 25.7948 15.3999 26.2457C15.3999 26.6966 15.2208 27.129 14.902 27.4478C14.5832 27.7666 14.1508 27.9457 13.6999 27.9457H9.61992C7.29426 27.9493 5.05389 27.0701 3.35144 25.4857C1.64899 23.9013 0.611359 21.7298 0.448177 19.4098C0.284996 17.0899 1.00843 14.7945 2.47232 12.9873C3.93622 11.1802 6.03145 9.99604 8.33472 9.67409C8.87476 6.98566 10.3267 4.56624 12.445 2.82494C14.5633 1.08365 17.2179 0.127345 19.96 0.117749C22.7021 0.108153 25.3634 1.04585 27.4938 2.77228C29.6243 4.4987 31.0931 6.90791 31.6519 9.59249C34.0866 9.62856 36.4072 10.6303 38.1033 12.3774C39.7994 14.1245 40.732 16.4738 40.6959 18.9085C40.6599 21.3432 39.6581 23.6638 37.911 25.3599C36.1639 27.056 33.8146 27.9886 31.3799 27.9525V27.9457Z"
				 />
			<path
				d="M20.4999 39.873C20.0537 39.873 19.6254 39.6977 19.3074 39.3847C18.9893 39.0718 18.8071 38.6463 18.7999 38.2002V17.1202C18.7999 16.6693 18.979 16.2369 19.2978 15.9181C19.6167 15.5993 20.0491 15.4202 20.4999 15.4202C20.9508 15.4202 21.3832 15.5993 21.702 15.9181C22.0208 16.2369 22.1999 16.6693 22.1999 17.1202V38.2002C22.1928 38.6463 22.0105 39.0718 21.6925 39.3847C21.3745 39.6977 20.9461 39.873 20.4999 39.873Z"
				 />
			<path
				d="M20.4999 39.8729C20.2765 39.8737 20.0551 39.8302 19.8485 39.745C19.6419 39.6598 19.4543 39.5346 19.2963 39.3765L13.8563 33.9365C13.6983 33.7784 13.5729 33.5908 13.4874 33.3843C13.4018 33.1778 13.3578 32.9564 13.3578 32.7329C13.3578 32.5094 13.4018 32.288 13.4874 32.0815C13.5729 31.875 13.6983 31.6874 13.8563 31.5293C14.0144 31.3713 14.202 31.2459 14.4086 31.1603C14.6151 31.0748 14.8364 31.0308 15.0599 31.0308C15.2835 31.0308 15.5048 31.0748 15.7113 31.1603C15.9178 31.2459 16.1055 31.3713 16.2635 31.5293L20.4999 35.7725L24.7363 31.5293C24.8944 31.3713 25.082 31.2459 25.2886 31.1603C25.4951 31.0748 25.7164 31.0308 25.9399 31.0308C26.1635 31.0308 26.3848 31.0748 26.5913 31.1603C26.7978 31.2459 26.9855 31.3713 27.1435 31.5293C27.3016 31.6874 27.427 31.875 27.5125 32.0815C27.5981 32.288 27.6421 32.5094 27.6421 32.7329C27.6421 32.9564 27.5981 33.1778 27.5125 33.3843C27.427 33.5908 27.3016 33.7784 27.1435 33.9365L21.7035 39.3765C21.5456 39.5346 21.3579 39.6598 21.1514 39.745C20.9448 39.8302 20.7234 39.8737 20.4999 39.8729V39.8729Z"
				 />
		</g>
	</symbol>
	<symbol id="headset-svg" viewBox="0 0 36 41">
		<g>
			<path
				d="M33.6091 27.0076C33.1583 27.0076 32.7259 26.8285 32.4071 26.5097C32.0883 26.1909 31.9091 25.7585 31.9091 25.3076V17.678C31.95 15.8354 31.6224 14.0032 30.9455 12.289C30.2686 10.5747 29.256 9.01298 27.9673 7.69539C26.6786 6.37779 25.1397 5.3309 23.4409 4.61617C21.7421 3.90145 19.9176 3.53327 18.0745 3.53327C16.2315 3.53327 14.407 3.90145 12.7082 4.61617C11.0094 5.3309 9.47046 6.37779 8.18175 7.69539C6.89304 9.01298 5.88053 10.5747 5.20363 12.289C4.52673 14.0032 4.19909 15.8354 4.23995 17.678V25.3076C4.23995 25.7585 4.06084 26.1909 3.74203 26.5097C3.42322 26.8285 2.99082 27.0076 2.53995 27.0076C2.08908 27.0076 1.65668 26.8285 1.33787 26.5097C1.01905 26.1909 0.839948 25.7585 0.839948 25.3076V17.678C0.794417 15.3859 1.20655 13.1078 2.05222 10.9769C2.89789 8.84606 4.1601 6.90528 5.765 5.2682C7.36989 3.63111 9.28521 2.33059 11.3989 1.44277C13.5125 0.55495 15.782 0.0976563 18.0745 0.0976562C20.3671 0.0976562 22.6366 0.55495 24.7502 1.44277C26.8639 2.33059 28.7792 3.63111 30.3841 5.2682C31.989 6.90528 33.2512 8.84606 34.0969 10.9769C34.9425 13.1078 35.3547 15.3859 35.3091 17.678V25.3076C35.3091 25.7585 35.13 26.1909 34.8112 26.5097C34.4924 26.8285 34.06 27.0076 33.6091 27.0076Z"
				fill="white" />
			<path
				d="M7.27277 34.202H6.95997C5.33684 34.202 3.78019 33.5572 2.63247 32.4094C1.48475 31.2617 0.839966 29.7051 0.839966 28.082L0.839966 22.1456C0.839966 21.6947 1.01907 21.2623 1.33788 20.9435C1.6567 20.6247 2.0891 20.4456 2.53997 20.4456H7.29997C8.63218 20.4474 9.90931 20.9774 10.8513 21.9194C11.7933 22.8614 12.3234 24.1385 12.3252 25.4708V29.1768C12.3243 29.8387 12.1928 30.494 11.9382 31.1051C11.6837 31.7161 11.3111 32.2709 10.8417 32.7377C10.3724 33.2046 9.81555 33.5742 9.20312 33.8254C8.5907 34.0767 7.93472 34.2046 7.27277 34.202V34.202ZM4.23997 23.8456V28.0684C4.23997 28.7897 4.52654 29.4816 5.03663 29.9917C5.54673 30.5018 6.23858 30.7884 6.95997 30.7884H7.25917C7.68964 30.7866 8.10198 30.6148 8.40638 30.3104C8.71077 30.006 8.88258 29.5936 8.88437 29.1632V25.4708C8.88258 25.0403 8.71077 24.6279 8.40638 24.3235C8.10198 24.0191 7.68964 23.8473 7.25917 23.8456H4.23997Z"
				fill="white" />
			<path
				d="M29.1756 34.202H28.8764C27.5448 34.2002 26.2684 33.6699 25.3274 32.7277C24.3865 31.7855 23.858 30.5083 23.858 29.1768V25.4708C23.8598 24.1397 24.3888 22.8636 25.3294 21.9218C26.2699 20.98 27.5453 20.4492 28.8764 20.4456H33.6364C34.0872 20.4456 34.5196 20.6247 34.8385 20.9435C35.1573 21.2623 35.3364 21.6947 35.3364 22.1456V28.0684C35.3382 28.8766 35.1799 29.6773 34.8706 30.424C34.5613 31.1708 34.1071 31.8489 33.5343 32.4191C32.9615 32.9894 32.2814 33.4406 31.5333 33.7466C30.7852 34.0526 29.9838 34.2073 29.1756 34.202V34.202ZM28.8764 23.8456C28.4465 23.8474 28.0349 24.0194 27.7316 24.324C27.4283 24.6286 27.258 25.0409 27.258 25.4708V29.1768C27.258 29.6066 27.4283 30.019 27.7316 30.3235C28.0349 30.6281 28.4465 30.8002 28.8764 30.802H29.1756C29.897 30.802 30.5888 30.5154 31.0989 30.0053C31.609 29.4952 31.8956 28.8033 31.8956 28.082V23.8456H28.8764Z"
				fill="white" />
			<path
				d="M29.5292 40.5601H27.9584C27.5075 40.5601 27.0751 40.381 26.7563 40.0622C26.4375 39.7434 26.2584 39.311 26.2584 38.8601C26.2584 38.4092 26.4375 37.9768 26.7563 37.658C27.0751 37.3392 27.5075 37.1601 27.9584 37.1601H29.5292C30.1604 37.1601 30.7657 36.9093 31.2121 36.463C31.6584 36.0167 31.9092 35.4113 31.9092 34.7801V27.8985C31.9092 27.4476 32.0883 27.0152 32.4071 26.6964C32.7259 26.3776 33.1583 26.1985 33.6092 26.1985C34.06 26.1985 34.4924 26.3776 34.8112 26.6964C35.1301 27.0152 35.3092 27.4476 35.3092 27.8985V34.7801C35.3074 36.3125 34.6978 37.7816 33.6143 38.8652C32.5307 39.9487 31.0616 40.5583 29.5292 40.5601V40.5601Z"
				fill="white" />
		</g>
	</symbol>
	<symbol id="users-svg" viewBox="0 0 41 32">
		<g>
			<path
				d="M22.982 31.8674H4.41801C3.81471 31.8689 3.21897 31.7332 2.67587 31.4705C2.13277 31.2077 1.65654 30.8249 1.28321 30.351C0.918295 29.8945 0.661944 29.361 0.533537 28.7908C0.40513 28.2206 0.408027 27.6287 0.542011 27.0598C1.24622 24.0996 2.92804 21.4633 5.31566 19.5771C7.70328 17.6908 10.6572 16.6648 13.7 16.6648C16.7428 16.6648 19.6967 17.6908 22.0844 19.5771C24.472 21.4633 26.1538 24.0996 26.858 27.0598C26.9916 27.6298 26.9942 28.2227 26.8659 28.7939C26.7375 29.3651 26.4814 29.8998 26.1168 30.3578C25.7421 30.8297 25.2655 31.2107 24.7225 31.4721C24.1796 31.7336 23.5846 31.8687 22.982 31.8674ZM13.7 20.0558C11.4168 20.0416 9.19664 20.8048 7.40468 22.2198C5.61272 23.6348 4.3556 25.6175 3.84001 27.8418C3.82428 27.9115 3.82468 27.9839 3.84118 28.0534C3.85768 28.123 3.88984 28.1878 3.93521 28.243C3.99182 28.3129 4.06331 28.3694 4.14448 28.4082C4.22564 28.447 4.31444 28.4672 4.40441 28.4674H22.9684C23.0584 28.4672 23.1472 28.447 23.2283 28.4082C23.3095 28.3694 23.381 28.3129 23.4376 28.243C23.483 28.1878 23.5151 28.123 23.5316 28.0534C23.5481 27.9839 23.5485 27.9115 23.5328 27.8418C23.0182 25.6221 21.7652 23.6428 19.9788 22.2283C18.1924 20.8138 15.9786 20.0478 13.7 20.0558V20.0558Z"
				fill="white" />
			<path
				d="M13.7001 14.9219C12.2432 14.9233 10.8187 14.4925 9.60677 13.6841C8.3948 12.8757 7.44983 11.726 6.8914 10.3805C6.33296 9.03491 6.18615 7.55397 6.46954 6.12496C6.75293 4.69596 7.45378 3.38312 8.48344 2.35251C9.5131 1.3219 10.8253 0.61983 12.254 0.335122C13.6828 0.0504131 15.1639 0.195855 16.5099 0.753049C17.856 1.31024 19.0065 2.25415 19.8161 3.46537C20.6256 4.67658 21.0577 6.10068 21.0577 7.55751C21.0559 9.50895 20.2803 11.38 18.9011 12.7605C17.5219 14.1411 15.6515 14.9183 13.7001 14.9219V14.9219ZM13.7001 3.59992C12.9154 3.59857 12.148 3.83011 11.495 4.2652C10.842 4.7003 10.3328 5.31938 10.0319 6.04406C9.73104 6.76874 9.65196 7.56641 9.80471 8.33606C9.95746 9.10571 10.3352 9.81272 10.89 10.3676C11.4449 10.9224 12.1519 11.3001 12.9215 11.4529C13.6912 11.6056 14.4888 11.5265 15.2135 11.2256C15.9382 10.9247 16.5573 10.4156 16.9924 9.76257C17.4275 9.10959 17.659 8.34218 17.6577 7.55751C17.6559 6.50845 17.2383 5.50286 16.4965 4.76106C15.7547 4.01925 14.7491 3.60171 13.7001 3.59992V3.59992Z"
				fill="white" />
			<path
				d="M36.9832 31.8675H21.0168C20.5659 31.8675 20.1335 31.6884 19.8147 31.3696C19.4959 31.0508 19.3168 30.6184 19.3168 30.1675C19.3168 29.7167 19.4959 29.2843 19.8147 28.9655C20.1335 28.6467 20.5659 28.4675 21.0168 28.4675H36.9832C37.0116 28.4681 37.0398 28.4623 37.0657 28.4505C37.0916 28.4387 37.1145 28.4213 37.1328 28.3995C37.1384 28.3867 37.1413 28.3728 37.1413 28.3587C37.1413 28.3447 37.1384 28.3308 37.1328 28.3179C36.813 26.9731 36.1518 25.7334 35.213 24.7187C34.2742 23.704 33.0896 22.9486 31.7736 22.5254C30.4577 22.1023 29.0548 22.0257 27.7005 22.303C26.3463 22.5804 25.0865 23.2023 24.0428 24.1087C23.8759 24.2642 23.6794 24.3845 23.465 24.4624C23.2506 24.5404 23.0228 24.5744 22.795 24.5624C22.5672 24.5505 22.3442 24.4928 22.1391 24.3928C21.9341 24.2929 21.7513 24.1527 21.6016 23.9806C21.4519 23.8085 21.3383 23.6081 21.2677 23.3912C21.197 23.1743 21.1708 22.9454 21.1904 22.7182C21.2101 22.4909 21.2753 22.27 21.3822 22.0684C21.489 21.8669 21.6353 21.6889 21.8124 21.5451C23.2967 20.2519 25.09 19.3642 27.0184 18.968C28.9467 18.5719 30.9448 18.6808 32.8187 19.2843C34.6926 19.8877 36.3787 20.9651 37.7136 22.4121C39.0485 23.859 39.9868 25.6264 40.4376 27.5427C40.5565 28.0561 40.557 28.5899 40.4392 29.1035C40.3214 29.6172 40.0883 30.0973 39.7576 30.5075C39.4259 30.9268 39.0045 31.2666 38.5245 31.5019C38.0444 31.7372 37.5178 31.8622 36.9832 31.8675V31.8675Z"
				fill="white" />
			<path
				d="M29.3401 17.8798C28.0826 17.8798 26.8533 17.5069 25.8077 16.8083C24.7622 16.1097 23.9473 15.1167 23.466 13.9549C22.9848 12.7932 22.8589 11.5148 23.1042 10.2814C23.3496 9.04811 23.9551 7.91522 24.8443 7.02604C25.7335 6.13685 26.8663 5.53131 28.0997 5.28599C29.333 5.04066 30.6114 5.16657 31.7732 5.6478C32.9349 6.12902 33.9279 6.94394 34.6265 7.98951C35.3252 9.03507 35.6981 10.2643 35.6981 11.5218C35.6981 12.3568 35.5336 13.1835 35.2141 13.9549C34.8946 14.7263 34.4262 15.4272 33.8358 16.0176C33.2454 16.608 32.5445 17.0763 31.7732 17.3958C31.0018 17.7154 30.175 17.8798 29.3401 17.8798ZM29.3401 8.56382C28.755 8.56382 28.1831 8.7373 27.6967 9.06233C27.2102 9.38736 26.8311 9.84934 26.6072 10.3898C26.3833 10.9303 26.3248 11.5251 26.4389 12.0989C26.553 12.6727 26.8348 13.1998 27.2484 13.6134C27.6621 14.0271 28.1892 14.3089 28.763 14.423C29.3368 14.5371 29.9315 14.4785 30.472 14.2547C31.0125 14.0308 31.4745 13.6516 31.7995 13.1652C32.1246 12.6788 32.2981 12.1069 32.2981 11.5218C32.2909 10.742 31.9761 9.99662 31.4221 9.44776C30.8682 8.8989 30.1199 8.59099 29.3401 8.59102V8.56382Z"
				fill="white" />
		</g>
	</symbol>
	<symbol id="folder-svg" viewBox="0 0 31 31">
		<g>
			<path
				d="M25.127 30.3066H5.87371C4.46317 30.3052 3.11079 29.7443 2.11338 28.7469C1.11598 27.7495 0.555052 26.3971 0.553711 24.9866L0.553711 7.25324C0.553711 6.9173 0.687163 6.59512 0.924709 6.35757C1.16226 6.12002 1.48444 5.98657 1.82038 5.98657H25.127C26.5376 5.98791 27.89 6.54884 28.8874 7.54625C29.8848 8.54365 30.4457 9.89603 30.447 11.3066V24.9866C30.4457 26.3971 29.8848 27.7495 28.8874 28.7469C27.89 29.7443 26.5376 30.3052 25.127 30.3066V30.3066ZM3.08704 8.51991V24.9866C3.08838 25.7252 3.38241 26.4333 3.90472 26.9556C4.42703 27.4779 5.13505 27.7719 5.87371 27.7732H25.127C25.8657 27.7719 26.5737 27.4779 27.096 26.9556C27.6183 26.4333 27.9124 25.7252 27.9137 24.9866V11.3066C27.9124 10.5679 27.6183 9.85989 27.096 9.33758C26.5737 8.81527 25.8657 8.52124 25.127 8.51991H3.08704Z"
				fill="white" />
			<path
				d="M16.6454 8.51979H1.82038C1.48444 8.51979 1.16226 8.38634 0.924709 8.14879C0.687163 7.91125 0.553711 7.58907 0.553711 7.25313L0.553711 1.82673C0.553711 1.49078 0.687163 1.1686 0.924709 0.931057C1.16226 0.693511 1.48444 0.560059 1.82038 0.560059L11.7308 0.560059C11.9072 0.560775 12.0816 0.598065 12.243 0.669574C12.4043 0.741083 12.5491 0.845258 12.6681 0.975525L17.5878 6.40193C17.7529 6.58385 17.8616 6.80986 17.9005 7.05243C17.9394 7.29499 17.907 7.54364 17.8071 7.76809C17.7072 7.99254 17.5442 8.1831 17.338 8.31657C17.1317 8.45003 16.8911 8.52064 16.6454 8.51979V8.51979ZM3.08704 5.98646H13.7878L11.1937 3.09339H3.08704V5.98646Z"
				fill="white" />
			<path
				d="M18.0335 16.4594H9.92682C9.59088 16.4594 9.2687 16.3259 9.03115 16.0884C8.79361 15.8508 8.66016 15.5286 8.66016 15.1927C8.66016 14.8568 8.79361 14.5346 9.03115 14.297C9.2687 14.0595 9.59088 13.926 9.92682 13.926H18.0335C18.3694 13.926 18.6916 14.0595 18.9292 14.297C19.1667 14.5346 19.3002 14.8568 19.3002 15.1927C19.3002 15.5286 19.1667 15.8508 18.9292 16.0884C18.6916 16.3259 18.3694 16.4594 18.0335 16.4594Z"
				fill="white" />
			<path
				d="M21.58 22.8534H9.41999C9.08405 22.8534 8.76186 22.72 8.52432 22.4824C8.28677 22.2449 8.15332 21.9227 8.15332 21.5867C8.15332 21.2508 8.28677 20.9286 8.52432 20.6911C8.76186 20.4535 9.08405 20.3201 9.41999 20.3201H21.58C21.9159 20.3201 22.2381 20.4535 22.4757 20.6911C22.7132 20.9286 22.8467 21.2508 22.8467 21.5867C22.8467 21.9227 22.7132 22.2449 22.4757 22.4824C22.2381 22.72 21.9159 22.8534 21.58 22.8534Z"
				fill="white" />
		</g>
	</symbol>
	<symbol id="mic-svg" viewBox="0 0 24 33">
		<g>
			<path
				d="M11.9999 27.9668C8.95959 27.964 6.04464 26.755 3.89483 24.6052C1.74503 22.4553 0.536027 19.5404 0.533203 16.5001L0.533203 14.3668C0.533203 14.0132 0.673679 13.674 0.923727 13.424C1.17378 13.1739 1.51291 13.0334 1.86654 13.0334H6.9332C7.28683 13.0334 7.62596 13.1739 7.87601 13.424C8.12606 13.674 8.26654 14.0132 8.26654 14.3668C8.26654 14.7204 8.12606 15.0595 7.87601 15.3096C7.62596 15.5596 7.28683 15.7001 6.9332 15.7001H3.19987V16.5001C3.19987 18.834 4.12701 21.0723 5.77733 22.7227C7.42765 24.373 9.66597 25.3001 11.9999 25.3001C14.3338 25.3001 16.5721 24.373 18.2224 22.7227C19.8727 21.0723 20.7999 18.834 20.7999 16.5001V15.7001H17.0665C16.7129 15.7001 16.3738 15.5596 16.1237 15.3096C15.8737 15.0595 15.7332 14.7204 15.7332 14.3668C15.7332 14.0132 15.8737 13.674 16.1237 13.424C16.3738 13.1739 16.7129 13.0334 17.0665 13.0334H22.1332C22.4868 13.0334 22.826 13.1739 23.076 13.424C23.3261 13.674 23.4665 14.0132 23.4665 14.3668V16.5001C23.4637 19.5404 22.2547 22.4553 20.1049 24.6052C17.9551 26.755 15.0402 27.964 11.9999 27.9668Z"
				/>
			<path
				d="M12.0001 22.9001C10.3027 22.9001 8.67485 22.2258 7.47461 21.0255C6.27438 19.8253 5.6001 18.1974 5.6001 16.5001V7.16672C5.6001 5.46934 6.27438 3.84147 7.47461 2.64124C8.67485 1.44101 10.3027 0.766724 12.0001 0.766724C13.6975 0.766724 15.3253 1.44101 16.5256 2.64124C17.7258 3.84147 18.4001 5.46934 18.4001 7.16672V16.5001C18.4001 18.1974 17.7258 19.8253 16.5256 21.0255C15.3253 22.2258 13.6975 22.9001 12.0001 22.9001V22.9001ZM12.0001 3.43339C11.01 3.43339 10.0604 3.82672 9.36023 4.52686C8.6601 5.22699 8.26676 6.17658 8.26676 7.16672V16.5001C8.26676 17.4902 8.6601 18.4398 9.36023 19.1399C10.0604 19.8401 11.01 20.2334 12.0001 20.2334C12.9902 20.2334 13.9398 19.8401 14.64 19.1399C15.3401 18.4398 15.7334 17.4902 15.7334 16.5001V7.16672C15.7334 6.17658 15.3401 5.22699 14.64 4.52686C13.9398 3.82672 12.9902 3.43339 12.0001 3.43339V3.43339Z"
				 />
			<path
				d="M11.9998 32.2334C11.6462 32.2334 11.3071 32.0929 11.057 31.8429C10.807 31.5928 10.6665 31.2537 10.6665 30.9V26.6334C10.6665 26.2798 10.807 25.9406 11.057 25.6906C11.3071 25.4405 11.6462 25.3 11.9998 25.3C12.3535 25.3 12.6926 25.4405 12.9426 25.6906C13.1927 25.9406 13.3332 26.2798 13.3332 26.6334V30.9C13.3332 31.0751 13.2987 31.2485 13.2317 31.4103C13.1647 31.5721 13.0665 31.719 12.9426 31.8429C12.8188 31.9667 12.6719 32.0649 12.5101 32.1319C12.3483 32.1989 12.1749 32.2334 11.9998 32.2334Z"
				 />
		</g>
	</symbol>
	<symbol id="play-svg" viewBox="0 0 17 18">
		<g>
			<path
				d="M2.56003 17.5889C2.19072 17.5884 1.82829 17.4889 1.51043 17.3009C1.19516 17.1196 0.933651 16.8579 0.75262 16.5425C0.571588 16.2272 0.477522 15.8693 0.480029 15.5057V2.6033C0.477522 2.23965 0.571588 1.88184 0.75262 1.56645C0.933651 1.25105 1.19516 0.989352 1.51043 0.808097C1.82326 0.622827 2.17948 0.52348 2.54305 0.520108C2.90661 0.516737 3.26461 0.609461 3.58083 0.788897L15.0496 7.2401C15.3713 7.42105 15.639 7.68432 15.8253 8.00289C16.0116 8.32145 16.1097 8.68385 16.1097 9.0529C16.1097 9.42194 16.0116 9.78434 15.8253 10.1029C15.639 10.4215 15.3713 10.6847 15.0496 10.8657L3.58083 17.3201C3.26917 17.4956 2.91769 17.5881 2.56003 17.5889V17.5889ZM2.56323 2.1201C2.4767 2.12104 2.39186 2.14418 2.31683 2.1873C2.24441 2.22986 2.18443 2.29067 2.14287 2.36367C2.10132 2.43667 2.07965 2.5193 2.08003 2.6033V15.5057C2.07974 15.5898 2.10154 15.6725 2.14325 15.7455C2.18496 15.8185 2.24512 15.8793 2.31771 15.9217C2.39029 15.9642 2.47276 15.9868 2.55684 15.9874C2.64093 15.9879 2.72369 15.9664 2.79683 15.9249L14.2656 9.4801C14.3394 9.43779 14.4008 9.37674 14.4434 9.30314C14.4861 9.22953 14.5085 9.14597 14.5085 9.0609C14.5085 8.97583 14.4861 8.89227 14.4434 8.81866C14.4008 8.74505 14.3394 8.68401 14.2656 8.6417L2.79683 2.1841C2.7253 2.14415 2.64513 2.12219 2.56323 2.1201V2.1201Z"
				fill="white" />
		</g>
	</symbol>
	<symbol id="vk-svg" viewBox="0 0 23 15">
		<g>
			<path fill-rule="evenodd" clip-rule="evenodd"
				d="M22.4729 1.448C22.632 0.902 22.4729 0.5 21.711 0.5H19.1954C18.5553 0.5 18.2601 0.847 18.1 1.23C18.1 1.23 16.8207 4.426 15.0085 6.502C14.422 7.104 14.1555 7.295 13.8355 7.295C13.6754 7.295 13.4349 7.104 13.4349 6.557V1.448C13.4349 0.792 13.2585 0.5 12.7257 0.5H8.76971C8.37008 0.5 8.12954 0.804 8.12954 1.093C8.12954 1.714 9.03613 1.858 9.12908 3.606V7.404C9.12908 8.237 8.98246 8.388 8.66237 8.388C7.80946 8.388 5.73467 5.177 4.50321 1.503C4.26458 0.788 4.02308 0.5 3.38004 0.5H0.8625C0.14375 0.5 0 0.847 0 1.23C0 1.912 0.852917 5.3 3.97229 9.781C6.05188 12.841 8.97958 14.5 11.6466 14.5C13.2461 14.5 13.4435 14.132 13.4435 13.497V11.184C13.4435 10.447 13.5949 10.3 14.1019 10.3C14.4756 10.3 15.1148 10.492 16.6079 11.967C18.3137 13.716 18.5945 14.5 19.5548 14.5H22.0704C22.7892 14.5 23.1495 14.132 22.9425 13.404C22.7144 12.68 21.8998 11.629 20.8198 10.382C20.2333 9.672 19.3535 8.907 19.0862 8.524C18.7134 8.033 18.8197 7.814 19.0862 7.377C19.0862 7.377 22.1528 2.951 22.472 1.448H22.4729Z" />
		</g>
	</symbol>
	<symbol id="rutube-svg" viewBox="0 0 19 19">
		<g>
			<path fill-rule="evenodd" clip-rule="evenodd"
				d="M0.503402 0.502914C0.000488281 1.00583 0.000488281 1.81526 0.000488281 3.43412V15.5659C0.000488281 17.1847 0.000488281 17.9942 0.503402 18.4971C1.00632 19 1.81575 19 3.43461 19H15.5663C17.1852 19 17.9947 19 18.4976 18.4971C19.0005 17.9942 19.0005 17.1847 19.0005 15.5659V3.43412C19.0005 1.81526 19.0005 1.00583 18.4976 0.502914C17.9947 0 17.1852 0 15.5663 0H3.43461C1.81575 0 1.00632 0 0.503402 0.502914ZM9.54116 11.9624L11.6555 15.1687V15.1902H14.8701L12.238 11.3169C13.4246 10.6283 14.1366 9.44474 14.1366 8.00297C14.1366 5.61443 12.2812 4.10812 9.498 4.10812H4.62213V15.1687H7.40526V11.9624H9.5196H9.54116ZM9.47644 9.48779H7.42682V6.51819H9.47644C10.5336 6.51819 11.375 7.07769 11.375 7.98148C11.375 8.90677 10.5552 9.48779 9.47644 9.48779Z" />
		</g>
	</symbol>
	<symbol id="tg-svg" viewBox="0 0 19 17">
		<g>
			<path
				d="M0.336084 8.16067L4.71406 9.79467L6.40861 15.2443C6.51704 15.5933 6.94384 15.7223 7.22713 15.4907L9.66749 13.5013C9.79198 13.3999 9.94651 13.3425 10.107 13.338C10.2675 13.3335 10.425 13.3822 10.555 13.4765L14.9565 16.6722C15.2596 16.8924 15.6889 16.7264 15.7649 16.3602L18.9893 0.850415C19.0722 0.450402 18.6792 0.116698 18.2983 0.264012L0.330954 7.19528C-0.112442 7.36628 -0.108579 7.99404 0.336084 8.16067ZM6.13552 8.92485L14.6917 3.65507C14.8455 3.56064 15.0037 3.76856 14.8717 3.89105L7.8103 10.4549C7.56231 10.6856 7.40199 10.9951 7.35665 11.3308L7.11611 13.1133C7.08425 13.3513 6.74991 13.375 6.68424 13.1446L5.75913 9.89404C5.65317 9.52328 5.80758 9.12726 6.13552 8.92485Z" />
		</g>
	</symbol>
	<symbol id="dwload" viewBox="0 0 54 54">
		<g>
			<path
				d="M41.5069 37.2608H36.0669C35.4657 37.2608 34.8892 37.0219 34.4641 36.5969C34.039 36.1718 33.8002 35.5952 33.8002 34.9941C33.8002 34.3929 34.039 33.8164 34.4641 33.3913C34.8892 32.9662 35.4657 32.7274 36.0669 32.7274H41.5069C43.5508 32.7274 45.511 31.9155 46.9563 30.4702C48.4016 29.0249 49.2136 27.0647 49.2136 25.0208C49.2136 22.9768 48.4016 21.0166 46.9563 19.5713C45.511 18.126 43.5508 17.3141 41.5069 17.3141H39.9021C39.3291 17.3154 38.7771 17.0988 38.3578 16.7082C37.9386 16.3176 37.6836 15.7823 37.6445 15.2106C37.4458 12.3476 36.1683 9.66651 34.0698 7.70867C31.9714 5.75083 29.2083 4.66201 26.3384 4.66201C23.4684 4.66201 20.7053 5.75083 18.6069 7.70867C16.5085 9.66651 15.2309 12.3476 15.0322 15.2106C14.9931 15.7823 14.7381 16.3176 14.3189 16.7082C13.8997 17.0988 13.3476 17.3154 12.7746 17.3141H12.4936C10.4496 17.3141 8.4894 18.126 7.04412 19.5713C5.59884 21.0166 4.78689 22.9768 4.78689 25.0208C4.78689 27.0647 5.59884 29.0249 7.04412 30.4702C8.4894 31.9155 10.4496 32.7274 12.4936 32.7274H17.9336C18.5347 32.7274 19.1112 32.9662 19.5363 33.3913C19.9614 33.8164 20.2002 34.3929 20.2002 34.9941C20.2002 35.5952 19.9614 36.1718 19.5363 36.5969C19.1112 37.0219 18.5347 37.2608 17.9336 37.2608H12.4936C9.39267 37.2656 6.40552 36.0933 4.13558 33.9808C1.86564 31.8682 0.482137 28.9728 0.264562 25.8796C0.0469871 22.7863 1.01156 19.7258 2.96342 17.3163C4.91528 14.9068 7.70892 13.3279 10.78 12.8986C11.5 9.31406 13.4359 6.08815 16.2603 3.76643C19.0847 1.4447 22.6242 0.16963 26.2804 0.156836C29.9365 0.144041 33.4849 1.39431 36.3254 3.69621C39.166 5.99811 41.1244 9.21039 41.8696 12.7898C45.1158 12.8379 48.21 14.1736 50.4714 16.5031C52.7329 18.8325 53.9763 21.9649 53.9282 25.2112C53.8801 28.4574 52.5444 31.5516 50.215 33.813C47.8855 36.0745 44.7531 37.3179 41.5069 37.2698V37.2608Z"
				 />
			<path
				d="M27.0001 53.1637C26.4051 53.1637 25.834 52.9299 25.41 52.5126C24.9859 52.0954 24.7429 51.5281 24.7334 50.9333V22.8266C24.7334 22.2254 24.9722 21.6489 25.3973 21.2238C25.8224 20.7987 26.3989 20.5599 27.0001 20.5599C27.6012 20.5599 28.1778 20.7987 28.6028 21.2238C29.0279 21.6489 29.2667 22.2254 29.2667 22.8266V50.9333C29.2572 51.5281 29.0142 52.0954 28.5902 52.5126C28.1661 52.9299 27.595 53.1637 27.0001 53.1637Z"
				 />
			<path
				d="M27.0004 53.1637C26.7025 53.1647 26.4073 53.1068 26.1318 52.9932C25.8564 52.8796 25.6062 52.7126 25.3956 52.5018L18.1423 45.2485C17.9315 45.0377 17.7644 44.7875 17.6503 44.5122C17.5362 44.2368 17.4775 43.9417 17.4775 43.6437C17.4775 43.3456 17.5362 43.0505 17.6503 42.7752C17.7644 42.4998 17.9315 42.2496 18.1423 42.0389C18.353 41.8281 18.6032 41.661 18.8786 41.5469C19.1539 41.4329 19.449 41.3741 19.7471 41.3741C20.0451 41.3741 20.3402 41.4329 20.6156 41.5469C20.8909 41.661 21.1411 41.8281 21.3519 42.0389L27.0004 47.6965L32.6489 42.0389C32.8597 41.8281 33.1099 41.661 33.3852 41.5469C33.6606 41.4329 33.9557 41.3741 34.2537 41.3741C34.5518 41.3741 34.8469 41.4329 35.1222 41.5469C35.3976 41.661 35.6478 41.8281 35.8585 42.0389C36.0693 42.2496 36.2365 42.4998 36.3505 42.7752C36.4646 43.0505 36.5233 43.3456 36.5233 43.6437C36.5233 43.9417 36.4646 44.2368 36.3505 44.5122C36.2365 44.7875 36.0693 45.0377 35.8585 45.2485L28.6052 52.5018C28.3946 52.7126 28.1444 52.8796 27.869 52.9932C27.5935 53.1068 27.2983 53.1647 27.0004 53.1637V53.1637Z"
				 />
		</g>
	</symbol>
	<symbol id="fldr-svg" viewBox="0 0 31 31">
		<g>
			<path
				d="M25.127 30.3066H5.87371C4.46317 30.3052 3.11079 29.7443 2.11338 28.7469C1.11598 27.7495 0.555052 26.3971 0.553711 24.9866L0.553711 7.25324C0.553711 6.9173 0.687163 6.59512 0.924709 6.35757C1.16226 6.12002 1.48444 5.98657 1.82038 5.98657H25.127C26.5376 5.98791 27.89 6.54884 28.8874 7.54625C29.8848 8.54365 30.4457 9.89603 30.447 11.3066V24.9866C30.4457 26.3971 29.8848 27.7495 28.8874 28.7469C27.89 29.7443 26.5376 30.3052 25.127 30.3066V30.3066ZM3.08704 8.51991V24.9866C3.08838 25.7252 3.38241 26.4333 3.90472 26.9556C4.42703 27.4779 5.13505 27.7719 5.87371 27.7732H25.127C25.8657 27.7719 26.5737 27.4779 27.096 26.9556C27.6183 26.4333 27.9124 25.7252 27.9137 24.9866V11.3066C27.9124 10.5679 27.6183 9.85989 27.096 9.33758C26.5737 8.81527 25.8657 8.52124 25.127 8.51991H3.08704Z"/>
			<path
				d="M16.6454 8.51979H1.82038C1.48444 8.51979 1.16226 8.38634 0.924709 8.14879C0.687163 7.91125 0.553711 7.58907 0.553711 7.25313L0.553711 1.82673C0.553711 1.49078 0.687163 1.1686 0.924709 0.931057C1.16226 0.693511 1.48444 0.560059 1.82038 0.560059L11.7308 0.560059C11.9072 0.560775 12.0816 0.598065 12.243 0.669574C12.4043 0.741083 12.5491 0.845258 12.6681 0.975525L17.5878 6.40193C17.7529 6.58385 17.8616 6.80986 17.9005 7.05243C17.9394 7.29499 17.907 7.54364 17.8071 7.76809C17.7072 7.99254 17.5442 8.1831 17.338 8.31657C17.1317 8.45003 16.8911 8.52064 16.6454 8.51979V8.51979ZM3.08704 5.98646H13.7878L11.1937 3.09339H3.08704V5.98646Z"/>
			<path
				d="M18.0335 16.4594H9.92682C9.59088 16.4594 9.2687 16.3259 9.03115 16.0884C8.79361 15.8508 8.66016 15.5286 8.66016 15.1927C8.66016 14.8568 8.79361 14.5346 9.03115 14.297C9.2687 14.0595 9.59088 13.926 9.92682 13.926H18.0335C18.3694 13.926 18.6916 14.0595 18.9292 14.297C19.1667 14.5346 19.3002 14.8568 19.3002 15.1927C19.3002 15.5286 19.1667 15.8508 18.9292 16.0884C18.6916 16.3259 18.3694 16.4594 18.0335 16.4594Z"/>
			<path
				d="M21.58 22.8534H9.41999C9.08405 22.8534 8.76186 22.72 8.52432 22.4824C8.28677 22.2449 8.15332 21.9227 8.15332 21.5867C8.15332 21.2508 8.28677 20.9286 8.52432 20.6911C8.76186 20.4535 9.08405 20.3201 9.41999 20.3201H21.58C21.9159 20.3201 22.2381 20.4535 22.4757 20.6911C22.7132 20.9286 22.8467 21.2508 22.8467 21.5867C22.8467 21.9227 22.7132 22.2449 22.4757 22.4824C22.2381 22.72 21.9159 22.8534 21.58 22.8534Z"	/>
		</g>
	</symbol>
	<symbol id="del-svg"  viewBox="0 0 19 18">
		<g>
			<path
				d="M11.4342 16.08H7.75025C7.14767 16.0776 6.56768 15.8504 6.12378 15.4429C5.67989 15.0354 5.40404 14.4769 5.35025 13.8768L4.62305 5.16476L5.82305 5.06396L6.55505 13.776C6.57923 14.0773 6.71626 14.3584 6.93873 14.5631C7.16121 14.7678 7.45274 14.8809 7.75505 14.88H11.4342C11.7356 14.8776 12.0253 14.7634 12.2471 14.5593C12.4689 14.3553 12.6069 14.0761 12.6342 13.776L13.3542 5.06396L14.5542 5.16476L13.8222 13.8768C13.7687 14.4749 13.4945 15.0317 13.0532 15.4389C12.6118 15.8461 12.0347 16.0746 11.4342 16.08V16.08Z"
				 />
			<path
				d="M15.6876 5.7144H3.50039C3.34126 5.7144 3.18865 5.65119 3.07613 5.53867C2.9636 5.42615 2.90039 5.27353 2.90039 5.1144C2.90039 4.95527 2.9636 4.80266 3.07613 4.69014C3.18865 4.57762 3.34126 4.5144 3.50039 4.5144H15.6876C15.8467 4.5144 15.9993 4.57762 16.1119 4.69014C16.2244 4.80266 16.2876 4.95527 16.2876 5.1144C16.2876 5.27353 16.2244 5.42615 16.1119 5.53867C15.9993 5.65119 15.8467 5.7144 15.6876 5.7144V5.7144Z"
				/>
			<path
				d="M12.7892 5.71432H11.5892V5.11432C11.5886 4.58557 11.3782 4.07865 11.0043 3.70477C10.6305 3.33088 10.1235 3.12056 9.59479 3.11992C9.06797 3.12676 8.56465 3.33908 8.1921 3.71163C7.81955 4.08418 7.60723 4.5875 7.60039 5.11432V5.71432H6.40039V5.11432C6.40039 4.26711 6.73694 3.45461 7.33601 2.85554C7.93507 2.25647 8.74758 1.91992 9.59479 1.91992C10.442 1.91992 11.2545 2.25647 11.8536 2.85554C12.4526 3.45461 12.7892 4.26711 12.7892 5.11432V5.71432Z"
				 />
			<path
				d="M10.7146 12.8135H10.6738C10.5952 12.8083 10.5183 12.7877 10.4476 12.7528C10.377 12.7179 10.3139 12.6695 10.2619 12.6102C10.21 12.5509 10.1703 12.482 10.145 12.4073C10.1197 12.3327 10.1094 12.2538 10.1146 12.1751L10.3546 8.71674C10.3651 8.55761 10.4384 8.40917 10.5583 8.30407C10.6783 8.19897 10.8351 8.14583 10.9942 8.15634C11.1533 8.16684 11.3018 8.24012 11.4069 8.36007C11.512 8.48002 11.5651 8.63681 11.5546 8.79594L11.3146 12.2543C11.3037 12.4061 11.2358 12.5481 11.1245 12.6518C11.0132 12.7555 10.8667 12.8133 10.7146 12.8135V12.8135Z"
				 />
			<path
				d="M8.47367 12.8135C8.32139 12.8132 8.17492 12.755 8.06395 12.6507C7.95298 12.5464 7.88582 12.4039 7.87607 12.2519L7.63607 8.79349C7.62557 8.63436 7.67871 8.47758 7.78381 8.35763C7.8889 8.23768 8.03734 8.1644 8.19647 8.15389C8.3556 8.14339 8.51239 8.19653 8.63233 8.30163C8.75228 8.40672 8.82557 8.55516 8.83607 8.71429L9.07607 12.1727C9.08129 12.2513 9.07096 12.3302 9.04568 12.4049C9.02039 12.4795 8.98065 12.5485 8.92872 12.6077C8.87679 12.667 8.81369 12.7155 8.74303 12.7504C8.67236 12.7853 8.59551 12.8059 8.51687 12.8111L8.47367 12.8135Z"
				 />
		</g>
	</symbol>
	<symbol id="foto-svg" viewBox="0 0 24 24">
		<g>
			<path
				d="M18.0805 21.44H5.92055C5.02968 21.4392 4.17554 21.0849 3.5456 20.4549C2.91567 19.825 2.56139 18.9709 2.56055 18.08L2.56055 5.92C2.56139 5.02913 2.91567 4.17499 3.5456 3.54505C4.17554 2.91512 5.02968 2.56084 5.92055 2.56L18.0805 2.56C18.9714 2.56084 19.8256 2.91512 20.4555 3.54505C21.0854 4.17499 21.4397 5.02913 21.4405 5.92V18.08C21.4397 18.9709 21.0854 19.825 20.4555 20.4549C19.8256 21.0849 18.9714 21.4392 18.0805 21.44V21.44ZM5.92055 4.16C5.45403 4.16084 5.00685 4.34654 4.67697 4.67642C4.34709 5.0063 4.16139 5.45348 4.16055 5.92V18.08C4.16139 18.5465 4.34709 18.9937 4.67697 19.3236C5.00685 19.6535 5.45403 19.8392 5.92055 19.84H18.0805C18.5471 19.8392 18.9942 19.6535 19.3241 19.3236C19.654 18.9937 19.8397 18.5465 19.8405 18.08V5.92C19.8397 5.45348 19.654 5.0063 19.3241 4.67642C18.9942 4.34654 18.5471 4.16084 18.0805 4.16H5.92055Z"
				 />
			<path
				d="M3.36074 18.4064C3.20297 18.406 3.04881 18.359 2.91768 18.2713C2.78654 18.1836 2.68427 18.059 2.62373 17.9133C2.56319 17.7676 2.54709 17.6073 2.57745 17.4525C2.60781 17.2976 2.68327 17.1552 2.79434 17.0432L8.12874 11.7088C8.20306 11.6343 8.29134 11.5752 8.38853 11.5348C8.48572 11.4945 8.58991 11.4738 8.69514 11.4738C8.80037 11.4738 8.90456 11.4945 9.00176 11.5348C9.09895 11.5752 9.18723 11.6343 9.26154 11.7088L11.3415 13.7856L15.4599 9.66719C15.5343 9.59269 15.6225 9.53358 15.7197 9.49325C15.8169 9.45292 15.9211 9.43216 16.0263 9.43216C16.1316 9.43216 16.2358 9.45292 16.333 9.49325C16.4301 9.53358 16.5184 9.59269 16.5927 9.66719L21.2071 14.2816C21.3527 14.4327 21.433 14.6349 21.4309 14.8446C21.4288 15.0544 21.3444 15.2549 21.1958 15.4031C21.0473 15.5512 20.8465 15.635 20.6368 15.6366C20.427 15.6381 20.225 15.5571 20.0743 15.4112L16.0263 11.3632L11.9047 15.4848C11.7548 15.6343 11.5517 15.7182 11.3399 15.7182C11.1282 15.7182 10.9251 15.6343 10.7751 15.4848L8.69514 13.4048L3.92714 18.1728C3.85282 18.2472 3.7645 18.3061 3.66729 18.3462C3.57008 18.3863 3.4659 18.4068 3.36074 18.4064V18.4064Z"
				 />
			<path
				d="M11.2898 9.55521C11.9967 9.55521 12.5698 8.98213 12.5698 8.27521C12.5698 7.56828 11.9967 6.99521 11.2898 6.99521C10.5828 6.99521 10.0098 7.56828 10.0098 8.27521C10.0098 8.98213 10.5828 9.55521 11.2898 9.55521Z"
				 />
		</g>
	</symbol>
	<symbol id="app-svg" viewBox="0 0 24 24">
		<g>
			<path
				d="M9.76055 10.56H3.36055C3.14837 10.56 2.94489 10.4757 2.79486 10.3257C2.64483 10.1757 2.56055 9.97217 2.56055 9.76V3.36C2.56055 3.14782 2.64483 2.94434 2.79486 2.79431C2.94489 2.64428 3.14837 2.56 3.36055 2.56H9.76055C9.97272 2.56 10.1762 2.64428 10.3262 2.79431C10.4763 2.94434 10.5605 3.14782 10.5605 3.36V9.76C10.5605 9.97217 10.4763 10.1757 10.3262 10.3257C10.1762 10.4757 9.97272 10.56 9.76055 10.56ZM4.16055 8.96H8.96055V4.16H4.16055V8.96Z"
				 />
			<path
				d="M20.6414 10.56H14.2414C14.0292 10.56 13.8257 10.4757 13.6757 10.3257C13.5257 10.1757 13.4414 9.97217 13.4414 9.76V3.36C13.4414 3.14782 13.5257 2.94434 13.6757 2.79431C13.8257 2.64428 14.0292 2.56 14.2414 2.56H20.6414C20.8536 2.56 21.0571 2.64428 21.2071 2.79431C21.3571 2.94434 21.4414 3.14782 21.4414 3.36V9.76C21.4414 9.97217 21.3571 10.1757 21.2071 10.3257C21.0571 10.4757 20.8536 10.56 20.6414 10.56ZM15.0414 8.96H19.8414V4.16H15.0414V8.96Z"
				 />
			<path
				d="M20.6414 21.4401H14.2414C14.0292 21.4401 13.8257 21.3558 13.6757 21.2057C13.5257 21.0557 13.4414 20.8522 13.4414 20.6401V14.2401C13.4414 14.0279 13.5257 13.8244 13.6757 13.6744C13.8257 13.5243 14.0292 13.4401 14.2414 13.4401H20.6414C20.8536 13.4401 21.0571 13.5243 21.2071 13.6744C21.3571 13.8244 21.4414 14.0279 21.4414 14.2401V20.6401C21.4414 20.8522 21.3571 21.0557 21.2071 21.2057C21.0571 21.3558 20.8536 21.4401 20.6414 21.4401ZM15.0414 19.8401H19.8414V15.0401H15.0414V19.8401Z"
				/>
			<path
				d="M9.76055 21.44H3.36055C3.14837 21.44 2.94489 21.3557 2.79486 21.2057C2.64483 21.0557 2.56055 20.8522 2.56055 20.64V14.24C2.56055 14.0278 2.64483 13.8243 2.79486 13.6743C2.94489 13.5243 3.14837 13.44 3.36055 13.44H9.76055C9.97272 13.44 10.1762 13.5243 10.3262 13.6743C10.4763 13.8243 10.5605 14.0278 10.5605 14.24V20.64C10.5605 20.8522 10.4763 21.0557 10.3262 21.2057C10.1762 21.3557 9.97272 21.44 9.76055 21.44ZM4.16055 19.84H8.96055V15.04H4.16055V19.84Z"
				 />
		</g>
	</symbol>
</svg>