<svg width="41" height="41" viewBox="0 0 41 41" fill="none" xmlns="http://www.w3.org/2000/svg">
<path d="M7.57993 27.6401C7.35648 27.6408 7.13509 27.5974 6.92851 27.5122C6.72194 27.427 6.53427 27.3017 6.37633 27.1437L0.936332 21.7037C0.619895 21.383 0.442474 20.9506 0.442474 20.5001C0.442474 20.0495 0.619895 19.6171 0.936332 19.2965L6.37633 13.8565C6.69555 13.5372 7.12849 13.3579 7.57993 13.3579C7.80346 13.3579 8.0248 13.4019 8.23132 13.4875C8.43783 13.573 8.62547 13.6984 8.78353 13.8565C8.94159 14.0145 9.06697 14.2022 9.15251 14.4087C9.23805 14.6152 9.28208 14.8365 9.28208 15.0601C9.28208 15.2836 9.23805 15.5049 9.15251 15.7114C9.06697 15.918 8.94159 16.1056 8.78353 16.2637L4.51993 20.5001L8.75633 24.7365C9.07277 25.0571 9.25019 25.4895 9.25019 25.9401C9.25019 26.3906 9.07277 26.823 8.75633 27.1437C8.444 27.4563 8.02182 27.6345 7.57993 27.6401V27.6401Z" fill="white"/>
<path d="M25.9399 9.27994C25.7165 9.28071 25.4951 9.23724 25.2885 9.15205C25.0819 9.06685 24.8943 8.94161 24.7363 8.78354L20.4999 4.51994L16.2635 8.75634C15.9443 9.07555 15.5114 9.25489 15.0599 9.25489C14.6085 9.25489 14.1756 9.07555 13.8563 8.75634C13.5371 8.43712 13.3578 8.00418 13.3578 7.55274C13.3578 7.1013 13.5371 6.66835 13.8563 6.34914L19.2963 0.909141C19.617 0.592703 20.0494 0.415283 20.4999 0.415283C20.9505 0.415283 21.3829 0.592703 21.7035 0.909141L27.1435 6.34914C27.46 6.66982 27.6374 7.10222 27.6374 7.55274C27.6374 8.00326 27.46 8.43566 27.1435 8.75634C26.9879 8.91933 26.8012 9.0496 26.5945 9.13951C26.3879 9.22942 26.1653 9.27717 25.9399 9.27994V9.27994Z" fill="white"/>
<path d="M33.4199 27.6401C33.1965 27.6408 32.9751 27.5974 32.7685 27.5122C32.5619 27.427 32.3743 27.3017 32.2163 27.1437C31.8999 26.823 31.7225 26.3906 31.7225 25.9401C31.7225 25.4895 31.8999 25.0571 32.2163 24.7365L36.4799 20.5001L32.2435 16.2637C31.9243 15.9444 31.745 15.5115 31.745 15.0601C31.745 14.6086 31.9243 14.1757 32.2435 13.8565C32.5627 13.5372 32.9957 13.3579 33.4471 13.3579C33.8986 13.3579 34.3315 13.5372 34.6507 13.8565L40.0907 19.2965C40.4072 19.6171 40.5846 20.0495 40.5846 20.5001C40.5846 20.9506 40.4072 21.383 40.0907 21.7037L34.6507 27.1437C34.4896 27.305 34.2975 27.4322 34.086 27.5175C33.8745 27.6028 33.6479 27.6445 33.4199 27.6401Z" fill="white"/>
<path d="M20.4999 40.5599C20.2765 40.5607 20.0551 40.5172 19.8485 40.432C19.6419 40.3468 19.4543 40.2216 19.2963 40.0635L13.8563 34.6235C13.5371 34.3043 13.3578 33.8714 13.3578 33.4199C13.3578 32.9685 13.5371 32.5355 13.8563 32.2163C14.1756 31.8971 14.6085 31.7178 15.0599 31.7178C15.5114 31.7178 15.9443 31.8971 16.2635 32.2163L20.4999 36.4799L24.7363 32.2435C25.0555 31.9243 25.4885 31.745 25.9399 31.745C26.3914 31.745 26.8243 31.9243 27.1435 32.2435C27.4627 32.5627 27.6421 32.9957 27.6421 33.4471C27.6421 33.8986 27.4627 34.3315 27.1435 34.6507L21.7035 40.0907C21.3801 40.4 20.9474 40.5687 20.4999 40.5599V40.5599Z" fill="white"/>
<path d="M20.4999 16.0799C20.0491 16.0799 19.6167 15.9008 19.2978 15.582C18.979 15.2632 18.7999 14.8308 18.7999 14.3799V2.13994C18.7999 1.68907 18.979 1.25667 19.2978 0.93786C19.6167 0.619048 20.0491 0.439941 20.4999 0.439941C20.9508 0.439941 21.3832 0.619048 21.702 0.93786C22.0208 1.25667 22.1999 1.68907 22.1999 2.13994V14.3799C22.1999 14.8308 22.0208 15.2632 21.702 15.582C21.3832 15.9008 20.9508 16.0799 20.4999 16.0799V16.0799Z" fill="white"/>
<path d="M14.3799 22.2001H2.13994C1.68907 22.2001 1.25667 22.0209 0.93786 21.7021C0.619048 21.3833 0.439941 20.9509 0.439941 20.5C0.439941 20.0492 0.619048 19.6168 0.93786 19.298C1.25667 18.9792 1.68907 18.8 2.13994 18.8H14.3799C14.8308 18.8 15.2632 18.9792 15.582 19.298C15.9008 19.6168 16.0799 20.0492 16.0799 20.5C16.0799 20.9509 15.9008 21.3833 15.582 21.7021C15.2632 22.0209 14.8308 22.2001 14.3799 22.2001V22.2001Z" fill="white"/>
<path d="M38.86 22.2001H26.62C26.1691 22.2001 25.7367 22.0209 25.4179 21.7021C25.0991 21.3833 24.92 20.9509 24.92 20.5C24.92 20.0492 25.0991 19.6168 25.4179 19.298C25.7367 18.9792 26.1691 18.8 26.62 18.8H38.86C39.3108 18.8 39.7432 18.9792 40.062 19.298C40.3808 19.6168 40.56 20.0492 40.56 20.5C40.56 20.9509 40.3808 21.3833 40.062 21.7021C39.7432 22.0209 39.3108 22.2001 38.86 22.2001Z" fill="white"/>
<path d="M20.4999 40.5599C20.0491 40.5599 19.6167 40.3808 19.2978 40.062C18.979 39.7432 18.7999 39.3108 18.7999 38.8599V26.6199C18.7999 26.1691 18.979 25.7367 19.2978 25.4178C19.6167 25.099 20.0491 24.9199 20.4999 24.9199C20.9508 24.9199 21.3832 25.099 21.702 25.4178C22.0208 25.7367 22.1999 26.1691 22.1999 26.6199V38.8599C22.1999 39.3108 22.0208 39.7432 21.702 40.062C21.3832 40.3808 20.9508 40.5599 20.4999 40.5599Z" fill="white"/>
</svg>
