<svg width="41" height="35" viewBox="0 0 41 35" fill="none" xmlns="http://www.w3.org/2000/svg">
<path d="M33.4199 34.1601H25.9399C25.4891 34.1601 25.0567 33.981 24.7379 33.6622C24.419 33.3434 24.2399 32.911 24.2399 32.4601C24.2399 32.0092 24.419 31.5768 24.7379 31.258C25.0567 30.9392 25.4891 30.7601 25.9399 30.7601H33.4199C34.4113 30.7583 35.3615 30.3637 36.0625 29.6627C36.7635 28.9617 37.1581 28.0114 37.1599 27.0201V7.98009C37.1581 6.98873 36.7635 6.03849 36.0625 5.33749C35.3615 4.6365 34.4113 4.24189 33.4199 4.24009H7.57994C6.58858 4.24189 5.63834 4.6365 4.93735 5.33749C4.23635 6.03849 3.84174 6.98873 3.83994 7.98009V8.66009C3.83994 9.11096 3.66084 9.54336 3.34202 9.86217C3.02321 10.181 2.59081 10.3601 2.13994 10.3601C1.68907 10.3601 1.25667 10.181 0.93786 9.86217C0.619048 9.54336 0.439941 9.11096 0.439941 8.66009L0.439941 7.98009C0.441742 6.08699 1.19457 4.27195 2.53319 2.93333C3.87181 1.59471 5.68685 0.841888 7.57994 0.840088L33.4199 0.840088C35.313 0.841888 37.1281 1.59471 38.4667 2.93333C39.8053 4.27195 40.5581 6.08699 40.5599 7.98009V27.0201C40.5581 28.9132 39.8053 30.7282 38.4667 32.0668C37.1281 33.4055 35.313 34.1583 33.4199 34.1601V34.1601Z" fill="white"/>
<path d="M20.4999 34.1601C20.0491 34.1601 19.6167 33.981 19.2979 33.6622C18.979 33.3434 18.7999 32.911 18.7999 32.4601C18.7945 28.0433 17.0376 23.8089 13.9144 20.6857C10.7912 17.5625 6.55679 15.8055 2.13994 15.8001C1.68907 15.8001 1.25667 15.621 0.93786 15.3022C0.619048 14.9834 0.439941 14.551 0.439941 14.1001C0.439941 13.6493 0.619048 13.2169 0.93786 12.8981C1.25667 12.5793 1.68907 12.4001 2.13994 12.4001C7.45853 12.4055 12.5577 14.5207 16.3185 18.2815C20.0793 22.0424 22.1945 27.1416 22.1999 32.4601C22.1999 32.911 22.0208 33.3434 21.702 33.6622C21.3832 33.981 20.9508 34.1601 20.4999 34.1601Z" fill="white"/>
<path d="M15.2571 34.16C14.8063 34.16 14.3739 33.9809 14.0551 33.6621C13.7362 33.3433 13.5571 32.9109 13.5571 32.46C13.5535 29.4331 12.3495 26.5312 10.2091 24.3908C8.06879 22.2505 5.16687 21.0464 2.13994 21.0428C1.68907 21.0428 1.25667 20.8637 0.93786 20.5449C0.619048 20.2261 0.439941 19.7937 0.439941 19.3428C0.439941 18.892 0.619048 18.4596 0.93786 18.1407C1.25667 17.8219 1.68907 17.6428 2.13994 17.6428C6.06805 17.6482 9.83373 19.211 12.6113 21.9886C15.3889 24.7662 16.9517 28.5319 16.9571 32.46C16.9571 32.6833 16.9132 32.9043 16.8277 33.1106C16.7423 33.3168 16.6171 33.5042 16.4592 33.6621C16.3014 33.82 16.114 33.9452 15.9077 34.0306C15.7014 34.1161 15.4804 34.16 15.2571 34.16Z" fill="white"/>
<path d="M10.0075 34.1602C9.55667 34.1602 9.12427 33.9811 8.80546 33.6623C8.48665 33.3434 8.30754 32.911 8.30754 32.4602C8.30574 30.825 7.65536 29.2573 6.4991 28.101C5.34285 26.9448 3.77514 26.2944 2.13994 26.2926C1.68907 26.2926 1.25667 26.1135 0.93786 25.7947C0.619048 25.4758 0.439941 25.0434 0.439941 24.5926C0.439941 24.1417 0.619048 23.7093 0.93786 23.3905C1.25667 23.0717 1.68907 22.8926 2.13994 22.8926C4.67687 22.8944 7.10938 23.903 8.90327 25.6969C10.6971 27.4907 11.7057 29.9232 11.7075 32.4602C11.7075 32.911 11.5284 33.3434 11.2096 33.6623C10.8908 33.9811 10.4584 34.1602 10.0075 34.1602Z" fill="white"/>
<path d="M4.76474 34.1601H2.13994C1.68907 34.1601 1.25667 33.9809 0.93786 33.6621C0.619048 33.3433 0.439941 32.9109 0.439941 32.4601L0.439941 29.8353C0.439941 29.3844 0.619048 28.952 0.93786 28.6332C1.25667 28.3144 1.68907 28.1353 2.13994 28.1353C3.28695 28.1353 4.38698 28.5909 5.19804 29.402C6.00909 30.213 6.46474 31.313 6.46474 32.4601C6.46474 32.9109 6.28563 33.3433 5.96682 33.6621C5.64801 33.9809 5.21561 34.1601 4.76474 34.1601V34.1601Z" fill="white"/>
</svg>
