<svg width="41" height="27" viewBox="0 0 41 27" fill="none" xmlns="http://www.w3.org/2000/svg">
<path d="M23.8999 26.76H7.57994C5.68685 26.7582 3.87181 26.0054 2.53319 24.6667C1.19457 23.3281 0.441742 21.5131 0.439941 19.62L0.439941 7.37999C0.441742 5.4869 1.19457 3.67186 2.53319 2.33324C3.87181 0.994617 5.68685 0.241791 7.57994 0.23999L23.8999 0.23999C25.793 0.241791 27.6081 0.994617 28.9467 2.33324C30.2853 3.67186 31.0381 5.4869 31.0399 7.37999V19.62C31.0381 21.5131 30.2853 23.3281 28.9467 24.6667C27.6081 26.0054 25.793 26.7582 23.8999 26.76V26.76ZM7.57994 3.63999C6.58858 3.64179 5.63834 4.0364 4.93735 4.7374C4.23635 5.43839 3.84174 6.38863 3.83994 7.37999V19.62C3.84174 20.6113 4.23635 21.5616 4.93735 22.2626C5.63834 22.9636 6.58858 23.3582 7.57994 23.36H23.8999C24.8913 23.3582 25.8415 22.9636 26.5425 22.2626C27.2435 21.5616 27.6381 20.6113 27.6399 19.62V7.37999C27.6381 6.38863 27.2435 5.43839 26.5425 4.7374C25.8415 4.0364 24.8913 3.64179 23.8999 3.63999H7.57994Z" fill="white"/>
<path d="M38.8599 22.3332C38.6248 22.3289 38.3932 22.2756 38.1799 22.1768L28.6599 17.8656C28.4463 17.7806 28.2521 17.6532 28.0892 17.491C27.9262 17.3289 27.7979 17.1353 27.7119 16.9221C27.6258 16.709 27.584 16.4805 27.5887 16.2507C27.5935 16.0208 27.6449 15.7944 27.7397 15.5849C27.8345 15.3755 27.9708 15.1875 28.1404 15.0322C28.31 14.877 28.5092 14.7577 28.7262 14.6817C28.9432 14.6057 29.1733 14.5745 29.4027 14.5899C29.632 14.6054 29.8559 14.6672 30.0607 14.7716L37.1599 17.9948V8.99844L30.0403 12.2012C29.6264 12.387 29.1557 12.4007 28.7316 12.2394C28.3076 12.0781 27.965 11.7549 27.7793 11.341C27.5935 10.9271 27.5798 10.4564 27.7411 10.0324C27.9024 9.60836 28.2256 9.2658 28.6395 9.08004L38.1595 4.79604C38.4196 4.67842 38.7051 4.62819 38.9897 4.64998C39.2743 4.67176 39.5488 4.76486 39.788 4.92068C40.0271 5.0765 40.2232 5.29004 40.3581 5.54159C40.493 5.79314 40.5624 6.07461 40.5599 6.36004V20.64C40.56 20.9246 40.4885 21.2046 40.3518 21.4542C40.2151 21.7038 40.0177 21.9149 39.7779 22.068C39.5031 22.2413 39.1848 22.3333 38.8599 22.3332V22.3332Z" fill="white"/>
</svg>
