<svg width="41" height="40" viewBox="0 0 41 40" fill="none" xmlns="http://www.w3.org/2000/svg">
<path d="M31.3799 27.9457H27.2999C26.8491 27.9457 26.4167 27.7666 26.0978 27.4478C25.779 27.129 25.5999 26.6966 25.5999 26.2457C25.5999 25.7948 25.779 25.3624 26.0978 25.0436C26.4167 24.7248 26.8491 24.5457 27.2999 24.5457H31.3799C32.9129 24.5457 34.383 23.9367 35.467 22.8528C36.551 21.7688 37.1599 20.2986 37.1599 18.7657C37.1599 17.2327 36.551 15.7626 35.467 14.6786C34.383 13.5946 32.9129 12.9857 31.3799 12.9857H30.1763C29.7466 12.9867 29.3325 12.8243 29.0181 12.5313C28.7037 12.2384 28.5125 11.8368 28.4831 11.4081C28.3341 9.26079 27.3759 7.25 25.8021 5.78162C24.2283 4.31324 22.156 3.49663 20.0035 3.49663C17.8511 3.49663 15.7788 4.31324 14.2049 5.78162C12.6311 7.25 11.673 9.26079 11.5239 11.4081C11.4946 11.8368 11.3033 12.2384 10.9889 12.5313C10.6745 12.8243 10.2605 12.9867 9.83072 12.9857H9.61992C8.08697 12.9857 6.61681 13.5946 5.53285 14.6786C4.44889 15.7626 3.83992 17.2327 3.83992 18.7657C3.83992 20.2986 4.44889 21.7688 5.53285 22.8528C6.61681 23.9367 8.08697 24.5457 9.61992 24.5457H13.6999C14.1508 24.5457 14.5832 24.7248 14.902 25.0436C15.2208 25.3624 15.3999 25.7948 15.3999 26.2457C15.3999 26.6966 15.2208 27.129 14.902 27.4478C14.5832 27.7666 14.1508 27.9457 13.6999 27.9457H9.61992C7.29426 27.9493 5.05389 27.0701 3.35144 25.4857C1.64899 23.9013 0.611359 21.7298 0.448177 19.4098C0.284996 17.0899 1.00843 14.7945 2.47232 12.9873C3.93622 11.1802 6.03145 9.99604 8.33472 9.67409C8.87476 6.98566 10.3267 4.56624 12.445 2.82494C14.5633 1.08365 17.2179 0.127345 19.96 0.117749C22.7021 0.108153 25.3634 1.04585 27.4938 2.77228C29.6243 4.4987 31.0931 6.90791 31.6519 9.59249C34.0866 9.62856 36.4072 10.6303 38.1033 12.3774C39.7994 14.1245 40.732 16.4738 40.6959 18.9085C40.6599 21.3432 39.6581 23.6638 37.911 25.3599C36.1639 27.056 33.8146 27.9886 31.3799 27.9525V27.9457Z" fill="white"/>
<path d="M20.4999 39.873C20.0537 39.873 19.6254 39.6977 19.3074 39.3847C18.9893 39.0718 18.8071 38.6463 18.7999 38.2002V17.1202C18.7999 16.6693 18.979 16.2369 19.2978 15.9181C19.6167 15.5993 20.0491 15.4202 20.4999 15.4202C20.9508 15.4202 21.3832 15.5993 21.702 15.9181C22.0208 16.2369 22.1999 16.6693 22.1999 17.1202V38.2002C22.1928 38.6463 22.0105 39.0718 21.6925 39.3847C21.3745 39.6977 20.9461 39.873 20.4999 39.873Z" fill="white"/>
<path d="M20.4999 39.8729C20.2765 39.8737 20.0551 39.8302 19.8485 39.745C19.6419 39.6598 19.4543 39.5346 19.2963 39.3765L13.8563 33.9365C13.6983 33.7784 13.5729 33.5908 13.4874 33.3843C13.4018 33.1778 13.3578 32.9564 13.3578 32.7329C13.3578 32.5094 13.4018 32.288 13.4874 32.0815C13.5729 31.875 13.6983 31.6874 13.8563 31.5293C14.0144 31.3713 14.202 31.2459 14.4086 31.1603C14.6151 31.0748 14.8364 31.0308 15.0599 31.0308C15.2835 31.0308 15.5048 31.0748 15.7113 31.1603C15.9178 31.2459 16.1055 31.3713 16.2635 31.5293L20.4999 35.7725L24.7363 31.5293C24.8944 31.3713 25.082 31.2459 25.2886 31.1603C25.4951 31.0748 25.7164 31.0308 25.9399 31.0308C26.1635 31.0308 26.3848 31.0748 26.5913 31.1603C26.7978 31.2459 26.9855 31.3713 27.1435 31.5293C27.3016 31.6874 27.427 31.875 27.5125 32.0815C27.5981 32.288 27.6421 32.5094 27.6421 32.7329C27.6421 32.9564 27.5981 33.1778 27.5125 33.3843C27.427 33.5908 27.3016 33.7784 27.1435 33.9365L21.7035 39.3765C21.5456 39.5346 21.3579 39.6598 21.1514 39.745C20.9448 39.8302 20.7234 39.8737 20.4999 39.8729V39.8729Z" fill="white"/>
</svg>
