<svg width="36" height="41" viewBox="0 0 36 41" fill="none" xmlns="http://www.w3.org/2000/svg">
<path d="M33.6091 27.0076C33.1583 27.0076 32.7259 26.8285 32.4071 26.5097C32.0883 26.1909 31.9091 25.7585 31.9091 25.3076V17.678C31.95 15.8354 31.6224 14.0032 30.9455 12.289C30.2686 10.5747 29.256 9.01298 27.9673 7.69539C26.6786 6.37779 25.1397 5.3309 23.4409 4.61617C21.7421 3.90145 19.9176 3.53327 18.0745 3.53327C16.2315 3.53327 14.407 3.90145 12.7082 4.61617C11.0094 5.3309 9.47046 6.37779 8.18175 7.69539C6.89304 9.01298 5.88053 10.5747 5.20363 12.289C4.52673 14.0032 4.19909 15.8354 4.23995 17.678V25.3076C4.23995 25.7585 4.06084 26.1909 3.74203 26.5097C3.42322 26.8285 2.99082 27.0076 2.53995 27.0076C2.08908 27.0076 1.65668 26.8285 1.33787 26.5097C1.01905 26.1909 0.839948 25.7585 0.839948 25.3076V17.678C0.794417 15.3859 1.20655 13.1078 2.05222 10.9769C2.89789 8.84606 4.1601 6.90528 5.765 5.2682C7.36989 3.63111 9.28521 2.33059 11.3989 1.44277C13.5125 0.55495 15.782 0.0976563 18.0745 0.0976562C20.3671 0.0976562 22.6366 0.55495 24.7502 1.44277C26.8639 2.33059 28.7792 3.63111 30.3841 5.2682C31.989 6.90528 33.2512 8.84606 34.0969 10.9769C34.9425 13.1078 35.3547 15.3859 35.3091 17.678V25.3076C35.3091 25.7585 35.13 26.1909 34.8112 26.5097C34.4924 26.8285 34.06 27.0076 33.6091 27.0076Z" fill="white"/>
<path d="M7.27277 34.202H6.95997C5.33684 34.202 3.78019 33.5572 2.63247 32.4094C1.48475 31.2617 0.839966 29.7051 0.839966 28.082L0.839966 22.1456C0.839966 21.6947 1.01907 21.2623 1.33788 20.9435C1.6567 20.6247 2.0891 20.4456 2.53997 20.4456H7.29997C8.63218 20.4474 9.90931 20.9774 10.8513 21.9194C11.7933 22.8614 12.3234 24.1385 12.3252 25.4708V29.1768C12.3243 29.8387 12.1928 30.494 11.9382 31.1051C11.6837 31.7161 11.3111 32.2709 10.8417 32.7377C10.3724 33.2046 9.81555 33.5742 9.20312 33.8254C8.5907 34.0767 7.93472 34.2046 7.27277 34.202V34.202ZM4.23997 23.8456V28.0684C4.23997 28.7897 4.52654 29.4816 5.03663 29.9917C5.54673 30.5018 6.23858 30.7884 6.95997 30.7884H7.25917C7.68964 30.7866 8.10198 30.6148 8.40638 30.3104C8.71077 30.006 8.88258 29.5936 8.88437 29.1632V25.4708C8.88258 25.0403 8.71077 24.6279 8.40638 24.3235C8.10198 24.0191 7.68964 23.8473 7.25917 23.8456H4.23997Z" fill="white"/>
<path d="M29.1756 34.202H28.8764C27.5448 34.2002 26.2684 33.6699 25.3274 32.7277C24.3865 31.7855 23.858 30.5083 23.858 29.1768V25.4708C23.8598 24.1397 24.3888 22.8636 25.3294 21.9218C26.2699 20.98 27.5453 20.4492 28.8764 20.4456H33.6364C34.0872 20.4456 34.5196 20.6247 34.8385 20.9435C35.1573 21.2623 35.3364 21.6947 35.3364 22.1456V28.0684C35.3382 28.8766 35.1799 29.6773 34.8706 30.424C34.5613 31.1708 34.1071 31.8489 33.5343 32.4191C32.9615 32.9894 32.2814 33.4406 31.5333 33.7466C30.7852 34.0526 29.9838 34.2073 29.1756 34.202V34.202ZM28.8764 23.8456C28.4465 23.8474 28.0349 24.0194 27.7316 24.324C27.4283 24.6286 27.258 25.0409 27.258 25.4708V29.1768C27.258 29.6066 27.4283 30.019 27.7316 30.3235C28.0349 30.6281 28.4465 30.8002 28.8764 30.802H29.1756C29.897 30.802 30.5888 30.5154 31.0989 30.0053C31.609 29.4952 31.8956 28.8033 31.8956 28.082V23.8456H28.8764Z" fill="white"/>
<path d="M29.5292 40.5601H27.9584C27.5075 40.5601 27.0751 40.381 26.7563 40.0622C26.4375 39.7434 26.2584 39.311 26.2584 38.8601C26.2584 38.4092 26.4375 37.9768 26.7563 37.658C27.0751 37.3392 27.5075 37.1601 27.9584 37.1601H29.5292C30.1604 37.1601 30.7657 36.9093 31.2121 36.463C31.6584 36.0167 31.9092 35.4113 31.9092 34.7801V27.8985C31.9092 27.4476 32.0883 27.0152 32.4071 26.6964C32.7259 26.3776 33.1583 26.1985 33.6092 26.1985C34.06 26.1985 34.4924 26.3776 34.8112 26.6964C35.1301 27.0152 35.3092 27.4476 35.3092 27.8985V34.7801C35.3074 36.3125 34.6978 37.7816 33.6143 38.8652C32.5307 39.9487 31.0616 40.5583 29.5292 40.5601V40.5601Z" fill="white"/>
</svg>
