<svg width="41" height="32" viewBox="0 0 41 32" fill="none" xmlns="http://www.w3.org/2000/svg">
<path d="M22.982 31.8674H4.41801C3.81471 31.8689 3.21897 31.7332 2.67587 31.4705C2.13277 31.2077 1.65654 30.8249 1.28321 30.351C0.918295 29.8945 0.661944 29.361 0.533537 28.7908C0.40513 28.2206 0.408027 27.6287 0.542011 27.0598C1.24622 24.0996 2.92804 21.4633 5.31566 19.5771C7.70328 17.6908 10.6572 16.6648 13.7 16.6648C16.7428 16.6648 19.6967 17.6908 22.0844 19.5771C24.472 21.4633 26.1538 24.0996 26.858 27.0598C26.9916 27.6298 26.9942 28.2227 26.8659 28.7939C26.7375 29.3651 26.4814 29.8998 26.1168 30.3578C25.7421 30.8297 25.2655 31.2107 24.7225 31.4721C24.1796 31.7336 23.5846 31.8687 22.982 31.8674ZM13.7 20.0558C11.4168 20.0416 9.19664 20.8048 7.40468 22.2198C5.61272 23.6348 4.3556 25.6175 3.84001 27.8418C3.82428 27.9115 3.82468 27.9839 3.84118 28.0534C3.85768 28.123 3.88984 28.1878 3.93521 28.243C3.99182 28.3129 4.06331 28.3694 4.14448 28.4082C4.22564 28.447 4.31444 28.4672 4.40441 28.4674H22.9684C23.0584 28.4672 23.1472 28.447 23.2283 28.4082C23.3095 28.3694 23.381 28.3129 23.4376 28.243C23.483 28.1878 23.5151 28.123 23.5316 28.0534C23.5481 27.9839 23.5485 27.9115 23.5328 27.8418C23.0182 25.6221 21.7652 23.6428 19.9788 22.2283C18.1924 20.8138 15.9786 20.0478 13.7 20.0558V20.0558Z" fill="white"/>
<path d="M13.7001 14.9219C12.2432 14.9233 10.8187 14.4925 9.60677 13.6841C8.3948 12.8757 7.44983 11.726 6.8914 10.3805C6.33296 9.03491 6.18615 7.55397 6.46954 6.12496C6.75293 4.69596 7.45378 3.38312 8.48344 2.35251C9.5131 1.3219 10.8253 0.61983 12.254 0.335122C13.6828 0.0504131 15.1639 0.195855 16.5099 0.753049C17.856 1.31024 19.0065 2.25415 19.8161 3.46537C20.6256 4.67658 21.0577 6.10068 21.0577 7.55751C21.0559 9.50895 20.2803 11.38 18.9011 12.7605C17.5219 14.1411 15.6515 14.9183 13.7001 14.9219V14.9219ZM13.7001 3.59992C12.9154 3.59857 12.148 3.83011 11.495 4.2652C10.842 4.7003 10.3328 5.31938 10.0319 6.04406C9.73104 6.76874 9.65196 7.56641 9.80471 8.33606C9.95746 9.10571 10.3352 9.81272 10.89 10.3676C11.4449 10.9224 12.1519 11.3001 12.9215 11.4529C13.6912 11.6056 14.4888 11.5265 15.2135 11.2256C15.9382 10.9247 16.5573 10.4156 16.9924 9.76257C17.4275 9.10959 17.659 8.34218 17.6577 7.55751C17.6559 6.50845 17.2383 5.50286 16.4965 4.76106C15.7547 4.01925 14.7491 3.60171 13.7001 3.59992V3.59992Z" fill="white"/>
<path d="M36.9832 31.8675H21.0168C20.5659 31.8675 20.1335 31.6884 19.8147 31.3696C19.4959 31.0508 19.3168 30.6184 19.3168 30.1675C19.3168 29.7167 19.4959 29.2843 19.8147 28.9655C20.1335 28.6467 20.5659 28.4675 21.0168 28.4675H36.9832C37.0116 28.4681 37.0398 28.4623 37.0657 28.4505C37.0916 28.4387 37.1145 28.4213 37.1328 28.3995C37.1384 28.3867 37.1413 28.3728 37.1413 28.3587C37.1413 28.3447 37.1384 28.3308 37.1328 28.3179C36.813 26.9731 36.1518 25.7334 35.213 24.7187C34.2742 23.704 33.0896 22.9486 31.7736 22.5254C30.4577 22.1023 29.0548 22.0257 27.7005 22.303C26.3463 22.5804 25.0865 23.2023 24.0428 24.1087C23.8759 24.2642 23.6794 24.3845 23.465 24.4624C23.2506 24.5404 23.0228 24.5744 22.795 24.5624C22.5672 24.5505 22.3442 24.4928 22.1391 24.3928C21.9341 24.2929 21.7513 24.1527 21.6016 23.9806C21.4519 23.8085 21.3383 23.6081 21.2677 23.3912C21.197 23.1743 21.1708 22.9454 21.1904 22.7182C21.2101 22.4909 21.2753 22.27 21.3822 22.0684C21.489 21.8669 21.6353 21.6889 21.8124 21.5451C23.2967 20.2519 25.09 19.3642 27.0184 18.968C28.9467 18.5719 30.9448 18.6808 32.8187 19.2843C34.6926 19.8877 36.3787 20.9651 37.7136 22.4121C39.0485 23.859 39.9868 25.6264 40.4376 27.5427C40.5565 28.0561 40.557 28.5899 40.4392 29.1035C40.3214 29.6172 40.0883 30.0973 39.7576 30.5075C39.4259 30.9268 39.0045 31.2666 38.5245 31.5019C38.0444 31.7372 37.5178 31.8622 36.9832 31.8675V31.8675Z" fill="white"/>
<path d="M29.3401 17.8798C28.0826 17.8798 26.8533 17.5069 25.8077 16.8083C24.7622 16.1097 23.9473 15.1167 23.466 13.9549C22.9848 12.7932 22.8589 11.5148 23.1042 10.2814C23.3496 9.04811 23.9551 7.91522 24.8443 7.02604C25.7335 6.13685 26.8663 5.53131 28.0997 5.28599C29.333 5.04066 30.6114 5.16657 31.7732 5.6478C32.9349 6.12902 33.9279 6.94394 34.6265 7.98951C35.3252 9.03507 35.6981 10.2643 35.6981 11.5218C35.6981 12.3568 35.5336 13.1835 35.2141 13.9549C34.8946 14.7263 34.4262 15.4272 33.8358 16.0176C33.2454 16.608 32.5445 17.0763 31.7732 17.3958C31.0018 17.7154 30.175 17.8798 29.3401 17.8798ZM29.3401 8.56382C28.755 8.56382 28.1831 8.7373 27.6967 9.06233C27.2102 9.38736 26.8311 9.84934 26.6072 10.3898C26.3833 10.9303 26.3248 11.5251 26.4389 12.0989C26.553 12.6727 26.8348 13.1998 27.2484 13.6134C27.6621 14.0271 28.1892 14.3089 28.763 14.423C29.3368 14.5371 29.9315 14.4785 30.472 14.2547C31.0125 14.0308 31.4745 13.6516 31.7995 13.1652C32.1246 12.6788 32.2981 12.1069 32.2981 11.5218C32.2909 10.742 31.9761 9.99662 31.4221 9.44776C30.8682 8.8989 30.1199 8.59099 29.3401 8.59102V8.56382Z" fill="white"/>
</svg>
