<svg width="18" height="14" viewBox="0 0 18 14" fill="none" xmlns="http://www.w3.org/2000/svg">
<path d="M16.92 7.77135H1.08001C0.885521 7.77135 0.698995 7.69409 0.561468 7.55657C0.423941 7.41904 0.34668 7.23251 0.34668 7.03802C0.34668 6.84353 0.423941 6.657 0.561468 6.51948C0.698995 6.38195 0.885521 6.30469 1.08001 6.30469H16.92C17.1145 6.30469 17.301 6.38195 17.4386 6.51948C17.5761 6.657 17.6533 6.84353 17.6533 7.03802C17.6533 7.23251 17.5761 7.41904 17.4386 7.55657C17.301 7.69409 17.1145 7.77135 16.92 7.77135Z" fill="#1578E0"/>
<path d="M7.27824 13.9696C7.18185 13.9699 7.08635 13.9512 6.99724 13.9144C6.90813 13.8777 6.82718 13.8236 6.75905 13.7554L0.560912 7.55731C0.423701 7.41935 0.34668 7.23268 0.34668 7.03811C0.34668 6.84353 0.423701 6.65687 0.560912 6.51891L6.75905 0.320773C6.89675 0.183072 7.08351 0.105713 7.27824 0.105713C7.47298 0.105713 7.65974 0.183072 7.79744 0.320773C7.93515 0.458473 8.0125 0.645235 8.0125 0.839972C8.0125 1.03471 7.93515 1.22147 7.79744 1.35917L2.10678 7.03811L7.79744 12.72C7.90027 12.8225 7.97032 12.9533 7.99873 13.0957C8.02713 13.2382 8.01261 13.3858 7.957 13.52C7.90138 13.6541 7.80719 13.7688 7.68635 13.8493C7.56551 13.9299 7.42348 13.9728 7.27824 13.9725V13.9696Z" fill="#1578E0"/>
</svg>
