<svg width="54" height="54" viewBox="0 0 54 54" fill="none" xmlns="http://www.w3.org/2000/svg">
<path d="M41.5069 37.2608H36.0669C35.4657 37.2608 34.8892 37.0219 34.4641 36.5969C34.039 36.1718 33.8002 35.5952 33.8002 34.9941C33.8002 34.3929 34.039 33.8164 34.4641 33.3913C34.8892 32.9662 35.4657 32.7274 36.0669 32.7274H41.5069C43.5508 32.7274 45.511 31.9155 46.9563 30.4702C48.4016 29.0249 49.2136 27.0647 49.2136 25.0208C49.2136 22.9768 48.4016 21.0166 46.9563 19.5713C45.511 18.126 43.5508 17.3141 41.5069 17.3141H39.9021C39.3291 17.3154 38.7771 17.0988 38.3578 16.7082C37.9386 16.3176 37.6836 15.7823 37.6445 15.2106C37.4458 12.3476 36.1683 9.66651 34.0698 7.70867C31.9714 5.75083 29.2083 4.66201 26.3384 4.66201C23.4684 4.66201 20.7053 5.75083 18.6069 7.70867C16.5085 9.66651 15.2309 12.3476 15.0322 15.2106C14.9931 15.7823 14.7381 16.3176 14.3189 16.7082C13.8997 17.0988 13.3476 17.3154 12.7746 17.3141H12.4936C10.4496 17.3141 8.4894 18.126 7.04412 19.5713C5.59884 21.0166 4.78689 22.9768 4.78689 25.0208C4.78689 27.0647 5.59884 29.0249 7.04412 30.4702C8.4894 31.9155 10.4496 32.7274 12.4936 32.7274H17.9336C18.5347 32.7274 19.1112 32.9662 19.5363 33.3913C19.9614 33.8164 20.2002 34.3929 20.2002 34.9941C20.2002 35.5952 19.9614 36.1718 19.5363 36.5969C19.1112 37.0219 18.5347 37.2608 17.9336 37.2608H12.4936C9.39267 37.2656 6.40552 36.0933 4.13558 33.9808C1.86564 31.8682 0.482137 28.9728 0.264562 25.8796C0.0469871 22.7863 1.01156 19.7258 2.96342 17.3163C4.91528 14.9068 7.70892 13.3279 10.78 12.8986C11.5 9.31406 13.4359 6.08815 16.2603 3.76643C19.0847 1.4447 22.6242 0.16963 26.2804 0.156836C29.9365 0.144041 33.4849 1.39431 36.3254 3.69621C39.166 5.99811 41.1244 9.21039 41.8696 12.7898C45.1158 12.8379 48.21 14.1736 50.4714 16.5031C52.7329 18.8325 53.9763 21.9649 53.9282 25.2112C53.8801 28.4574 52.5444 31.5516 50.215 33.813C47.8855 36.0745 44.7531 37.3179 41.5069 37.2698V37.2608Z" fill="#191D23"/>
<path d="M27.0001 53.1637C26.4051 53.1637 25.834 52.9299 25.41 52.5126C24.9859 52.0954 24.7429 51.5281 24.7334 50.9333V22.8266C24.7334 22.2254 24.9722 21.6489 25.3973 21.2238C25.8224 20.7987 26.3989 20.5599 27.0001 20.5599C27.6012 20.5599 28.1778 20.7987 28.6028 21.2238C29.0279 21.6489 29.2667 22.2254 29.2667 22.8266V50.9333C29.2572 51.5281 29.0142 52.0954 28.5902 52.5126C28.1661 52.9299 27.595 53.1637 27.0001 53.1637Z" fill="#191D23"/>
<path d="M27.0004 53.1637C26.7025 53.1647 26.4073 53.1068 26.1318 52.9932C25.8564 52.8796 25.6062 52.7126 25.3956 52.5018L18.1423 45.2485C17.9315 45.0377 17.7644 44.7875 17.6503 44.5122C17.5362 44.2368 17.4775 43.9417 17.4775 43.6437C17.4775 43.3456 17.5362 43.0505 17.6503 42.7752C17.7644 42.4998 17.9315 42.2496 18.1423 42.0389C18.353 41.8281 18.6032 41.661 18.8786 41.5469C19.1539 41.4329 19.449 41.3741 19.7471 41.3741C20.0451 41.3741 20.3402 41.4329 20.6156 41.5469C20.8909 41.661 21.1411 41.8281 21.3519 42.0389L27.0004 47.6965L32.6489 42.0389C32.8597 41.8281 33.1099 41.661 33.3852 41.5469C33.6606 41.4329 33.9557 41.3741 34.2537 41.3741C34.5518 41.3741 34.8469 41.4329 35.1222 41.5469C35.3976 41.661 35.6478 41.8281 35.8585 42.0389C36.0693 42.2496 36.2365 42.4998 36.3505 42.7752C36.4646 43.0505 36.5233 43.3456 36.5233 43.6437C36.5233 43.9417 36.4646 44.2368 36.3505 44.5122C36.2365 44.7875 36.0693 45.0377 35.8585 45.2485L28.6052 52.5018C28.3946 52.7126 28.1444 52.8796 27.869 52.9932C27.5935 53.1068 27.2983 53.1647 27.0004 53.1637V53.1637Z" fill="#191D23"/>
</svg>
