<svg width="1272" height="1022" viewBox="0 0 1272 1022" fill="none" xmlns="http://www.w3.org/2000/svg">
<g opacity="0.32" filter="url(#filter0_f_108_1005)">
<path fill-rule="evenodd" clip-rule="evenodd" d="M531.09 -166.788C563.333 -246.826 722.443 -123.079 808.914 -145.612C894.738 -167.977 923.359 -278.223 1012.37 -292.206C1113.31 -308.063 1227.56 -281.938 1326.13 -226.864C1435.44 -165.792 1557.29 -81.7695 1593 32.2109C1629.04 147.213 1518.65 232.793 1505.05 344.166C1491.71 453.435 1616.64 639.203 1514.32 676.5C1383.32 724.244 1473.79 531.31 1326.13 530.224C1232.71 529.536 1295 351.776 1214 265C1138 206.5 1052.82 185.229 973.5 142C858.56 79.3596 337.845 279.895 337.501 161.224C337.06 9.6118 574.97 123.109 623.001 -13.2764C656.783 -109.204 493.251 -72.8609 531.09 -166.788Z" fill="#1578E0"/>
</g>
<defs>
<filter id="filter0_f_108_1005" x="0.499939" y="-633.79" width="1936.69" height="1654.88" filterUnits="userSpaceOnUse" color-interpolation-filters="sRGB">
<feFlood flood-opacity="0" result="BackgroundImageFix"/>
<feBlend mode="normal" in="SourceGraphic" in2="BackgroundImageFix" result="shape"/>
<feGaussianBlur stdDeviation="168.5" result="effect1_foregroundBlur_108_1005"/>
</filter>
</defs>
</svg>
