<svg width="1273" height="1505" viewBox="0 0 1273 1505" fill="none" xmlns="http://www.w3.org/2000/svg">
<g opacity="0.44" filter="url(#filter0_f_108_1004)">
<path fill-rule="evenodd" clip-rule="evenodd" d="M402.539 570.669C419.07 495.109 559.922 561.088 626.209 520.984C692.001 481.179 702.195 380.944 771.483 347.456C850.056 309.479 944.029 303.781 1028.82 326.391C1122.85 351.463 1229.49 392.899 1270.95 480.639C1312.79 569.166 1234.67 668.427 1236.56 765.96C1238.42 861.652 1359.15 988.416 1281.92 1044.87C1183.06 1117.13 1039.52 961.033 921.806 996.043C847.333 1018.19 873.005 1164 799.266 1188.42C732.849 1210.4 680.601 1115.72 612.493 1098.45C513.8 1073.42 328.13 1165.74 314.294 1065.43C296.618 937.27 546.282 909.79 568.946 782.717C584.887 693.34 383.139 659.341 402.539 570.669Z" fill="#1578E0"/>
</g>
<defs>
<filter id="filter0_f_108_1004" x="0.398865" y="0.0898438" width="1620.3" height="1504.62" filterUnits="userSpaceOnUse" color-interpolation-filters="sRGB">
<feFlood flood-opacity="0" result="BackgroundImageFix"/>
<feBlend mode="normal" in="SourceGraphic" in2="BackgroundImageFix" result="shape"/>
<feGaussianBlur stdDeviation="156.5" result="effect1_foregroundBlur_108_1004"/>
</filter>
</defs>
</svg>
