<svg width="31" height="31" viewBox="0 0 31 31" fill="none" xmlns="http://www.w3.org/2000/svg">
<path d="M25.127 30.3066H5.87371C4.46317 30.3052 3.11079 29.7443 2.11338 28.7469C1.11598 27.7495 0.555052 26.3971 0.553711 24.9866L0.553711 7.25324C0.553711 6.9173 0.687163 6.59512 0.924709 6.35757C1.16226 6.12002 1.48444 5.98657 1.82038 5.98657H25.127C26.5376 5.98791 27.89 6.54884 28.8874 7.54625C29.8848 8.54365 30.4457 9.89603 30.447 11.3066V24.9866C30.4457 26.3971 29.8848 27.7495 28.8874 28.7469C27.89 29.7443 26.5376 30.3052 25.127 30.3066V30.3066ZM3.08704 8.51991V24.9866C3.08838 25.7252 3.38241 26.4333 3.90472 26.9556C4.42703 27.4779 5.13505 27.7719 5.87371 27.7732H25.127C25.8657 27.7719 26.5737 27.4779 27.096 26.9556C27.6183 26.4333 27.9124 25.7252 27.9137 24.9866V11.3066C27.9124 10.5679 27.6183 9.85989 27.096 9.33758C26.5737 8.81527 25.8657 8.52124 25.127 8.51991H3.08704Z" fill="white"/>
<path d="M16.6454 8.51979H1.82038C1.48444 8.51979 1.16226 8.38634 0.924709 8.14879C0.687163 7.91125 0.553711 7.58907 0.553711 7.25313L0.553711 1.82673C0.553711 1.49078 0.687163 1.1686 0.924709 0.931057C1.16226 0.693511 1.48444 0.560059 1.82038 0.560059L11.7308 0.560059C11.9072 0.560775 12.0816 0.598065 12.243 0.669574C12.4043 0.741083 12.5491 0.845258 12.6681 0.975525L17.5878 6.40193C17.7529 6.58385 17.8616 6.80986 17.9005 7.05243C17.9394 7.29499 17.907 7.54364 17.8071 7.76809C17.7072 7.99254 17.5442 8.1831 17.338 8.31657C17.1317 8.45003 16.8911 8.52064 16.6454 8.51979V8.51979ZM3.08704 5.98646H13.7878L11.1937 3.09339H3.08704V5.98646Z" fill="white"/>
<path d="M18.0335 16.4594H9.92682C9.59088 16.4594 9.2687 16.3259 9.03115 16.0884C8.79361 15.8508 8.66016 15.5286 8.66016 15.1927C8.66016 14.8568 8.79361 14.5346 9.03115 14.297C9.2687 14.0595 9.59088 13.926 9.92682 13.926H18.0335C18.3694 13.926 18.6916 14.0595 18.9292 14.297C19.1667 14.5346 19.3002 14.8568 19.3002 15.1927C19.3002 15.5286 19.1667 15.8508 18.9292 16.0884C18.6916 16.3259 18.3694 16.4594 18.0335 16.4594Z" fill="white"/>
<path d="M21.58 22.8534H9.41999C9.08405 22.8534 8.76186 22.72 8.52432 22.4824C8.28677 22.2449 8.15332 21.9227 8.15332 21.5867C8.15332 21.2508 8.28677 20.9286 8.52432 20.6911C8.76186 20.4535 9.08405 20.3201 9.41999 20.3201H21.58C21.9159 20.3201 22.2381 20.4535 22.4757 20.6911C22.7132 20.9286 22.8467 21.2508 22.8467 21.5867C22.8467 21.9227 22.7132 22.2449 22.4757 22.4824C22.2381 22.72 21.9159 22.8534 21.58 22.8534Z" fill="white"/>
</svg>
