<svg width="34" height="34" viewBox="0 0 34 34" fill="none" xmlns="http://www.w3.org/2000/svg">
<path fill-rule="evenodd" clip-rule="evenodd" d="M17.8585 11.8896C17.3843 11.4154 16.6155 11.4154 16.1413 11.8896C15.6671 12.3638 15.6671 13.1326 16.1413 13.6068L18.3202 15.7857H7.07915C6.40852 15.7857 5.86487 16.3294 5.86487 17C5.86487 17.6706 6.40852 18.2143 7.07915 18.2143H18.3201L16.1413 20.3931C15.6671 20.8673 15.6671 21.6362 16.1413 22.1104C16.6155 22.5846 17.3843 22.5846 17.8585 22.1104L22.1045 17.8644C22.3277 17.6442 22.466 17.3383 22.466 17C22.466 16.6624 22.3282 16.357 22.1058 16.1369L17.8585 11.8896Z" fill="white"/>
<path fill-rule="evenodd" clip-rule="evenodd" d="M7.12199 7.12209C11.1173 3.12681 17.1258 1.93162 22.3459 4.09384C27.566 6.25607 30.9696 11.3499 30.9696 17.0001C30.9696 22.6503 27.566 27.7441 22.3459 29.9063C17.1258 32.0685 11.1173 30.8733 7.12199 26.8781L7.12059 26.8766C6.0516 25.8041 5.16651 24.5629 4.50085 23.2028C4.20604 22.6005 4.45536 21.8732 5.05772 21.5784C5.66007 21.2836 6.38737 21.5329 6.68218 22.1352C7.23061 23.2558 7.95981 24.2784 8.84052 25.1621C12.1412 28.4618 17.1045 29.4487 21.4166 27.6626C25.7292 25.8763 28.541 21.668 28.541 17.0001C28.541 12.3322 25.7292 8.12388 21.4166 6.33755C17.1043 4.55135 12.1407 5.53849 8.83994 8.83866C7.9595 9.72213 7.23049 10.7445 6.68216 11.8648C6.38734 12.4671 5.66004 12.7164 5.05769 12.4216C4.45534 12.1268 4.20604 11.3995 4.50086 10.7972C5.16654 9.4371 6.05163 8.19595 7.1206 7.12349L7.12199 7.12209Z" fill="white"/>
</svg>
