<svg width="24" height="33" viewBox="0 0 24 33" fill="none" xmlns="http://www.w3.org/2000/svg">
<path d="M11.9999 27.9668C8.95959 27.964 6.04464 26.755 3.89483 24.6052C1.74503 22.4553 0.536027 19.5404 0.533203 16.5001L0.533203 14.3668C0.533203 14.0132 0.673679 13.674 0.923727 13.424C1.17378 13.1739 1.51291 13.0334 1.86654 13.0334H6.9332C7.28683 13.0334 7.62596 13.1739 7.87601 13.424C8.12606 13.674 8.26654 14.0132 8.26654 14.3668C8.26654 14.7204 8.12606 15.0595 7.87601 15.3096C7.62596 15.5596 7.28683 15.7001 6.9332 15.7001H3.19987V16.5001C3.19987 18.834 4.12701 21.0723 5.77733 22.7227C7.42765 24.373 9.66597 25.3001 11.9999 25.3001C14.3338 25.3001 16.5721 24.373 18.2224 22.7227C19.8727 21.0723 20.7999 18.834 20.7999 16.5001V15.7001H17.0665C16.7129 15.7001 16.3738 15.5596 16.1237 15.3096C15.8737 15.0595 15.7332 14.7204 15.7332 14.3668C15.7332 14.0132 15.8737 13.674 16.1237 13.424C16.3738 13.1739 16.7129 13.0334 17.0665 13.0334H22.1332C22.4868 13.0334 22.826 13.1739 23.076 13.424C23.3261 13.674 23.4665 14.0132 23.4665 14.3668V16.5001C23.4637 19.5404 22.2547 22.4553 20.1049 24.6052C17.9551 26.755 15.0402 27.964 11.9999 27.9668Z" fill="#1578E0"/>
<path d="M12.0001 22.9001C10.3027 22.9001 8.67485 22.2258 7.47461 21.0255C6.27438 19.8253 5.6001 18.1974 5.6001 16.5001V7.16672C5.6001 5.46934 6.27438 3.84147 7.47461 2.64124C8.67485 1.44101 10.3027 0.766724 12.0001 0.766724C13.6975 0.766724 15.3253 1.44101 16.5256 2.64124C17.7258 3.84147 18.4001 5.46934 18.4001 7.16672V16.5001C18.4001 18.1974 17.7258 19.8253 16.5256 21.0255C15.3253 22.2258 13.6975 22.9001 12.0001 22.9001V22.9001ZM12.0001 3.43339C11.01 3.43339 10.0604 3.82672 9.36023 4.52686C8.6601 5.22699 8.26676 6.17658 8.26676 7.16672V16.5001C8.26676 17.4902 8.6601 18.4398 9.36023 19.1399C10.0604 19.8401 11.01 20.2334 12.0001 20.2334C12.9902 20.2334 13.9398 19.8401 14.64 19.1399C15.3401 18.4398 15.7334 17.4902 15.7334 16.5001V7.16672C15.7334 6.17658 15.3401 5.22699 14.64 4.52686C13.9398 3.82672 12.9902 3.43339 12.0001 3.43339V3.43339Z" fill="#1578E0"/>
<path d="M11.9998 32.2334C11.6462 32.2334 11.3071 32.0929 11.057 31.8429C10.807 31.5928 10.6665 31.2537 10.6665 30.9V26.6334C10.6665 26.2798 10.807 25.9406 11.057 25.6906C11.3071 25.4405 11.6462 25.3 11.9998 25.3C12.3535 25.3 12.6926 25.4405 12.9426 25.6906C13.1927 25.9406 13.3332 26.2798 13.3332 26.6334V30.9C13.3332 31.0751 13.2987 31.2485 13.2317 31.4103C13.1647 31.5721 13.0665 31.719 12.9426 31.8429C12.8188 31.9667 12.6719 32.0649 12.5101 32.1319C12.3483 32.1989 12.1749 32.2334 11.9998 32.2334Z" fill="#1578E0"/>
</svg>
