<svg width="17" height="18" viewBox="0 0 17 18" fill="none" xmlns="http://www.w3.org/2000/svg">
<path d="M2.56003 17.5889C2.19072 17.5884 1.82829 17.4889 1.51043 17.3009C1.19516 17.1196 0.933651 16.8579 0.75262 16.5425C0.571588 16.2272 0.477522 15.8693 0.480029 15.5057V2.6033C0.477522 2.23965 0.571588 1.88184 0.75262 1.56645C0.933651 1.25105 1.19516 0.989352 1.51043 0.808097C1.82326 0.622827 2.17948 0.52348 2.54305 0.520108C2.90661 0.516737 3.26461 0.609461 3.58083 0.788897L15.0496 7.2401C15.3713 7.42105 15.639 7.68432 15.8253 8.00289C16.0116 8.32145 16.1097 8.68385 16.1097 9.0529C16.1097 9.42194 16.0116 9.78434 15.8253 10.1029C15.639 10.4215 15.3713 10.6847 15.0496 10.8657L3.58083 17.3201C3.26917 17.4956 2.91769 17.5881 2.56003 17.5889V17.5889ZM2.56323 2.1201C2.4767 2.12104 2.39186 2.14418 2.31683 2.1873C2.24441 2.22986 2.18443 2.29067 2.14287 2.36367C2.10132 2.43667 2.07965 2.5193 2.08003 2.6033V15.5057C2.07974 15.5898 2.10154 15.6725 2.14325 15.7455C2.18496 15.8185 2.24512 15.8793 2.31771 15.9217C2.39029 15.9642 2.47276 15.9868 2.55684 15.9874C2.64093 15.9879 2.72369 15.9664 2.79683 15.9249L14.2656 9.4801C14.3394 9.43779 14.4008 9.37674 14.4434 9.30314C14.4861 9.22953 14.5085 9.14597 14.5085 9.0609C14.5085 8.97583 14.4861 8.89227 14.4434 8.81866C14.4008 8.74505 14.3394 8.68401 14.2656 8.6417L2.79683 2.1841C2.7253 2.14415 2.64513 2.12219 2.56323 2.1201V2.1201Z" fill="white"/>
</svg>
