<svg width="19" height="19" viewBox="0 0 19 19" fill="none" xmlns="http://www.w3.org/2000/svg">
<path fill-rule="evenodd" clip-rule="evenodd" d="M0.503402 0.502914C0.000488281 1.00583 0.000488281 1.81526 0.000488281 3.43412V15.5659C0.000488281 17.1847 0.000488281 17.9942 0.503402 18.4971C1.00632 19 1.81575 19 3.43461 19H15.5663C17.1852 19 17.9947 19 18.4976 18.4971C19.0005 17.9942 19.0005 17.1847 19.0005 15.5659V3.43412C19.0005 1.81526 19.0005 1.00583 18.4976 0.502914C17.9947 0 17.1852 0 15.5663 0H3.43461C1.81575 0 1.00632 0 0.503402 0.502914ZM9.54116 11.9624L11.6555 15.1687V15.1902H14.8701L12.238 11.3169C13.4246 10.6283 14.1366 9.44474 14.1366 8.00297C14.1366 5.61443 12.2812 4.10812 9.498 4.10812H4.62213V15.1687H7.40526V11.9624H9.5196H9.54116ZM9.47644 9.48779H7.42682V6.51819H9.47644C10.5336 6.51819 11.375 7.07769 11.375 7.98148C11.375 8.90677 10.5552 9.48779 9.47644 9.48779Z" fill="#1578E0"/>
</svg>
