<svg width="19" height="17" viewBox="0 0 19 17" fill="none" xmlns="http://www.w3.org/2000/svg">
<path d="M0.336084 8.16067L4.71406 9.79467L6.40861 15.2443C6.51704 15.5933 6.94384 15.7223 7.22713 15.4907L9.66749 13.5013C9.79198 13.3999 9.94651 13.3425 10.107 13.338C10.2675 13.3335 10.425 13.3822 10.555 13.4765L14.9565 16.6722C15.2596 16.8924 15.6889 16.7264 15.7649 16.3602L18.9893 0.850415C19.0722 0.450402 18.6792 0.116698 18.2983 0.264012L0.330954 7.19528C-0.112442 7.36628 -0.108579 7.99404 0.336084 8.16067ZM6.13552 8.92485L14.6917 3.65507C14.8455 3.56064 15.0037 3.76856 14.8717 3.89105L7.8103 10.4549C7.56231 10.6856 7.40199 10.9951 7.35665 11.3308L7.11611 13.1133C7.08425 13.3513 6.74991 13.375 6.68424 13.1446L5.75913 9.89404C5.65317 9.52328 5.80758 9.12726 6.13552 8.92485Z" fill="white"/>
</svg>
