<svg width="23" height="15" viewBox="0 0 23 15" fill="none" xmlns="http://www.w3.org/2000/svg">
<path fill-rule="evenodd" clip-rule="evenodd" d="M22.4729 1.448C22.632 0.902 22.4729 0.5 21.711 0.5H19.1954C18.5553 0.5 18.2601 0.847 18.1 1.23C18.1 1.23 16.8207 4.426 15.0085 6.502C14.422 7.104 14.1555 7.295 13.8355 7.295C13.6754 7.295 13.4349 7.104 13.4349 6.557V1.448C13.4349 0.792 13.2585 0.5 12.7257 0.5H8.76971C8.37008 0.5 8.12954 0.804 8.12954 1.093C8.12954 1.714 9.03613 1.858 9.12908 3.606V7.404C9.12908 8.237 8.98246 8.388 8.66237 8.388C7.80946 8.388 5.73467 5.177 4.50321 1.503C4.26458 0.788 4.02308 0.5 3.38004 0.5H0.8625C0.14375 0.5 0 0.847 0 1.23C0 1.912 0.852917 5.3 3.97229 9.781C6.05188 12.841 8.97958 14.5 11.6466 14.5C13.2461 14.5 13.4435 14.132 13.4435 13.497V11.184C13.4435 10.447 13.5949 10.3 14.1019 10.3C14.4756 10.3 15.1148 10.492 16.6079 11.967C18.3137 13.716 18.5945 14.5 19.5548 14.5H22.0704C22.7892 14.5 23.1495 14.132 22.9425 13.404C22.7144 12.68 21.8998 11.629 20.8198 10.382C20.2333 9.672 19.3535 8.907 19.0862 8.524C18.7134 8.033 18.8197 7.814 19.0862 7.377C19.0862 7.377 22.1528 2.951 22.472 1.448H22.4729Z" fill="white"/>
</svg>
