<?xml version="1.0" standalone="no"?>
<!DOCTYPE svg PUBLIC "-//W3C//DTD SVG 20010904//EN"
 "http://www.w3.org/TR/2001/REC-SVG-20010904/DTD/svg10.dtd">
<svg version="1.0" xmlns="http://www.w3.org/2000/svg"
 width="512.000000pt" height="512.000000pt" viewBox="0 0 512.000000 512.000000"
 preserveAspectRatio="xMidYMid meet">
<metadata>
Created by potrace 1.14, written by Peter Selinger 2001-2017
</metadata>
<g transform="translate(0.000000,512.000000) scale(0.100000,-0.100000)"
fill="#000000" stroke="none">
<path d="M4805 4884 c-99 -58 -198 -116 -220 -129 -22 -12 -146 -85 -275 -161
-129 -76 -252 -147 -272 -158 -20 -12 -159 -93 -308 -181 -150 -88 -284 -167
-299 -175 -15 -9 -59 -34 -97 -57 -61 -36 -712 -418 -789 -463 -131 -75 -281
-164 -339 -198 -37 -23 -70 -42 -72 -42 -5 0 -199 -114 -275 -161 -25 -16 -51
-29 -56 -29 -6 0 -129 296 -273 658 -144 361 -264 659 -266 661 -2 2 -4 -958
-4 -2135 l1 -2139 263 530 c145 291 268 531 273 532 6 2 486 -235 1067 -528
582 -292 1054 -524 1050 -516 -5 8 -23 30 -39 49 -17 18 -66 76 -110 128 -44
52 -83 97 -86 100 -3 3 -61 70 -129 150 -68 80 -144 169 -169 199 -77 90 -82
95 -103 121 -22 26 -115 134 -159 185 -15 16 -107 125 -205 240 -98 116 -183
215 -189 221 -5 6 -30 35 -55 64 -25 30 -65 77 -89 105 -24 27 -53 61 -65 75
-81 97 -132 156 -136 160 -3 3 -16 18 -28 33 l-21 29 87 96 c48 54 94 104 102
112 8 9 46 51 84 93 38 43 78 88 90 100 26 29 168 185 199 219 12 14 58 65
103 114 44 49 125 139 180 199 54 61 103 115 109 121 5 6 46 51 90 99 44 49
85 93 90 99 6 6 51 56 100 111 50 55 94 105 100 111 58 63 183 200 195 214 26
30 164 183 190 210 27 29 165 182 190 210 8 9 53 59 100 110 47 51 93 102 103
114 10 12 52 58 94 103 41 45 82 91 91 101 24 27 174 192 251 277 77 83 113
125 110 125 -2 0 -85 -48 -184 -106z"/>
<path d="M910 2618 c-175 -119 -525 -355 -647 -436 -73 -48 -132 -90 -133 -94
0 -4 193 -103 430 -222 334 -167 430 -211 431 -198 4 67 3 1002 -1 1002 -3 -1
-39 -24 -80 -52z"/>
</g>
</svg>
